<?xml version="1.0" encoding="UTF-8" standalone="no"?>
<!-- Created with Inkscape (http://www.inkscape.org/) -->

<svg
   xmlns:dc="http://purl.org/dc/elements/1.1/"
   xmlns:cc="http://creativecommons.org/ns#"
   xmlns:rdf="http://www.w3.org/1999/02/22-rdf-syntax-ns#"
   xmlns:svg="http://www.w3.org/2000/svg"
   xmlns="http://www.w3.org/2000/svg"
   xmlns:sodipodi="http://sodipodi.sourceforge.net/DTD/sodipodi-0.dtd"
   xmlns:inkscape="http://www.inkscape.org/namespaces/inkscape"
   width="6.279695mm"
   height="5.813951mm"
   viewBox="0 0 6.279695 5.813951"
   version="1.1"
   id="svg1460"
   inkscape:version="0.92.4 (5da689c313, 2019-01-14)"
   sodipodi:docname="account-nav.svg">
  <defs
     id="defs1454" />
  <sodipodi:namedview
     id="base"
     pagecolor="#ffffff"
     bordercolor="#666666"
     borderopacity="1.0"
     inkscape:pageopacity="0.0"
     inkscape:pageshadow="2"
     inkscape:zoom="0.35"
     inkscape:cx="-475.27571"
     inkscape:cy="-254.72729"
     inkscape:document-units="mm"
     inkscape:current-layer="layer1"
     showgrid="false"
     fit-margin-top="0"
     fit-margin-left="0"
     fit-margin-right="0"
     fit-margin-bottom="0"
     inkscape:window-width="1920"
     inkscape:window-height="1137"
     inkscape:window-x="-8"
     inkscape:window-y="-8"
     inkscape:window-maximized="1" />
  <metadata
     id="metadata1457">
    <rdf:RDF>
      <cc:Work
         rdf:about="">
        <dc:format>image/svg+xml</dc:format>
        <dc:type
           rdf:resource="http://purl.org/dc/dcmitype/StillImage" />
        <dc:title></dc:title>
      </cc:Work>
    </rdf:RDF>
  </metadata>
  <g
     inkscape:label="Layer 1"
     inkscape:groupmode="layer"
     id="layer1"
     transform="translate(-108.7411,-75.622786)">
    <g
       id="Profile"
       transform="matrix(0.26458333,0,0,0.26458333,-203.73181,43.609248)">
      <g
         id="Union_1"
         data-name="Union 1"
         transform="translate(1181,121)"
         style="fill:none">
        <path
           d="m 0,21.97 v -2.746 c 0,-3.022 5.34,-5.493 11.867,-5.493 6.527,0 11.867,2.469 11.867,5.493 V 21.97 Z M 5.933,5.493 A 5.726,5.726 0 0 1 11.867,0 5.726,5.726 0 0 1 17.8,5.493 5.726,5.726 0 0 1 11.867,10.985 5.726,5.726 0 0 1 5.933,5.493 Z"
           id="path40"
           inkscape:connector-curvature="0"
           style="stroke:none" />
        <path
           d="m 22.73428,20.970041 v -1.74591 c 0,-1.03402 -1.059201,-2.117331 -2.906001,-2.972161 -2.11901,-0.980819 -4.946331,-1.520989 -7.96114,-1.520989 -3.0148097,0 -5.8421303,0.54017 -7.9611401,1.520989 -1.8468,0.85483 -2.90600003,1.938141 -2.90600003,2.972161 v 1.74591 H 22.73428 M 11.867139,9.9850407 c 2.72001,0 4.9329,-2.01505 4.9329,-4.49189 0,-2.47753 -2.21289,-4.4931501 -4.9329,-4.4931501 -2.72075,0 -4.93424,2.0156201 -4.93424,4.4931501 0,2.47684 2.21349,4.49189 4.93424,4.49189 M 23.73428,21.970041 H -1.1373901e-6 v -2.74591 c 0,-3.02155 5.3401500373901,-5.49315 11.8671401373901,-5.49315 6.52699,0 11.867141,2.4716 11.867141,5.49315 z m -11.867141,-10.985 c -3.2775098,0 -5.93424,-2.4592508 -5.93424,-5.4918903 0,-3.03388 2.6567302,-5.49315006248781 5.93424,-5.49315006248781 3.27618,0 5.9329,2.45927006248781 5.9329,5.49315006248781 0,3.0326395 -2.65672,5.4918903 -5.9329,5.4918903 z"
           id="path42"
           inkscape:connector-curvature="0"
           style="fill:#f1f1f1;stroke:none" />
      </g>
    </g>
  </g>
</svg>
