<?xml version="1.0" encoding="UTF-8" standalone="no"?>
<!-- Created with Inkscape (http://www.inkscape.org/) -->

<svg
   xmlns:dc="http://purl.org/dc/elements/1.1/"
   xmlns:cc="http://creativecommons.org/ns#"
   xmlns:rdf="http://www.w3.org/1999/02/22-rdf-syntax-ns#"
   xmlns:svg="http://www.w3.org/2000/svg"
   xmlns="http://www.w3.org/2000/svg"
   xmlns:sodipodi="http://sodipodi.sourceforge.net/DTD/sodipodi-0.dtd"
   xmlns:inkscape="http://www.inkscape.org/namespaces/inkscape"
   width="6.6063809mm"
   height="6.6063809mm"
   viewBox="0 0 6.6063809 6.6063809"
   version="1.1"
   id="svg887"
   inkscape:version="0.92.4 (5da689c313, 2019-01-14)"
   sodipodi:docname="cart-nav.svg">
  <defs
     id="defs881" />
  <sodipodi:namedview
     id="base"
     pagecolor="#ffffff"
     bordercolor="#666666"
     borderopacity="1.0"
     inkscape:pageopacity="0.0"
     inkscape:pageshadow="2"
     inkscape:zoom="1.4"
     inkscape:cx="-71.274326"
     inkscape:cy="-64.476008"
     inkscape:document-units="mm"
     inkscape:current-layer="layer1"
     showgrid="false"
     inkscape:window-width="1920"
     inkscape:window-height="1137"
     inkscape:window-x="-8"
     inkscape:window-y="-8"
     inkscape:window-maximized="1"
     fit-margin-top="0"
     fit-margin-left="0"
     fit-margin-right="0"
     fit-margin-bottom="0" />
  <metadata
     id="metadata884">
    <rdf:RDF>
      <cc:Work
         rdf:about="">
        <dc:format>image/svg+xml</dc:format>
        <dc:type
           rdf:resource="http://purl.org/dc/dcmitype/StillImage" />
        <dc:title></dc:title>
      </cc:Work>
    </rdf:RDF>
  </metadata>
  <g
     inkscape:label="Layer 1"
     inkscape:groupmode="layer"
     id="layer1"
     transform="translate(-145.61943,-199.20276)">
    <g
       id="Purchase"
       transform="matrix(0.26458333,0,0,0.26458333,145.61943,199.20276)">
      <rect
         id="rectangle"
         width="24.969"
         height="24.969"
         stroke="rgba(255,255,255,0)"
         x="0"
         y="0"
         style="fill:none;stroke-width:1" />
      <path
         id="path"
         d="m 8.242,18.646 a 2.081,2.081 0 1 0 2.081,2.081 2.072,2.072 0 0 0 -2.081,-2.081 m 10.4,0 a 2.081,2.081 0 1 0 2.081,2.081 2.072,2.072 0 0 0 -2.081,-2.081 M 4.081,2 H 2 v 2.08 h 2.081 l 3.743,7.894 -1.408,2.55 a 2.083,2.083 0 0 0 1.826,3.082 H 20.726 V 15.525 H 8.682 a 0.259,0.259 0 0 1 -0.259,-0.26 l 0.031,-0.126 0.934,-1.695 h 7.75 a 2.082,2.082 0 0 0 1.821,-1.071 L 22.677,5.622 A 1.02,1.02 0 0 0 22.808,5.122 1.041,1.041 0 0 0 21.767,4.08 H 6.383 L 5.961,3.192 A 2.077,2.077 0 0 0 4.081,2"
         transform="translate(0.081,0.081)"
         inkscape:connector-curvature="0"
         style="fill:none;fill-rule:evenodd;stroke:#f1f1f1;stroke-width:1" />
    </g>
  </g>
</svg>
