<?xml version="1.0" encoding="UTF-8" standalone="no"?>
<!-- Generator: Adobe Illustrator 14.0.0, SVG Export Plug-In . SVG Version: 6.00 Build 43363)  -->

<svg
   xmlns:dc="http://purl.org/dc/elements/1.1/"
   xmlns:cc="http://creativecommons.org/ns#"
   xmlns:rdf="http://www.w3.org/1999/02/22-rdf-syntax-ns#"
   xmlns:svg="http://www.w3.org/2000/svg"
   xmlns="http://www.w3.org/2000/svg"
   xmlns:xlink="http://www.w3.org/1999/xlink"
   xmlns:sodipodi="http://sodipodi.sourceforge.net/DTD/sodipodi-0.dtd"
   xmlns:inkscape="http://www.inkscape.org/namespaces/inkscape"
   version="1.0"
   x="0px"
   y="0px"
   width="179.87102"
   height="151.30441"
   viewBox="0 0 179.87102 151.30442"
   enable-background="new 0 0 596.93 875.5"
   xml:space="preserve"
   id="svg472"
   sodipodi:docname="EU2.svg"
   inkscape:version="0.92.4 (5da689c313, 2019-01-14)"><metadata
   id="metadata478"><rdf:RDF><cc:Work
       rdf:about=""><dc:format>image/svg+xml</dc:format><dc:type
         rdf:resource="http://purl.org/dc/dcmitype/StillImage" /><dc:title /></cc:Work></rdf:RDF></metadata><defs
   id="defs476">
	
	

		
		
		
		
		
		
	
			
			
			
				
			
				
			
				
			
				
			
				
			
				
			
				
			
			
			
			
			
			
			
			
			
			
			
			
			
			
			
			
			
			
			
			
			
			
			
			
			
			
			
			
			
			
			
			
			
			
			
			
			
			
			
			
			
			
			
			
				
			
				
			
				
			
				
			
				
			
				
			
				
			
			
			
			
			
			
			
			
			
			
			
			
			
			
			
			
			
			
			
			
			
			
			
			
			
			
		
				<defs
   id="defs235">
					<rect
   id="SVGID_17_"
   width="596.92999"
   height="875.5"
   x="0"
   y="0" />
				</defs>
				<clipPath
   id="SVGID_18_">
					<use
   xlink:href="#SVGID_17_"
   overflow="visible"
   id="use237"
   style="overflow:visible"
   x="0"
   y="0"
   width="100%"
   height="100%" />
				</clipPath>
				
				
				
				
				
				
			
				<defs
   id="defs215">
					<rect
   id="SVGID_15_"
   width="596.92999"
   height="875.5"
   x="0"
   y="0" />
				</defs>
				<clipPath
   id="SVGID_16_">
					<use
   xlink:href="#SVGID_15_"
   overflow="visible"
   id="use217"
   style="overflow:visible"
   x="0"
   y="0"
   width="100%"
   height="100%" />
				</clipPath>
				
				
				
				
				
			</defs><sodipodi:namedview
   pagecolor="#ffffff"
   bordercolor="#666666"
   borderopacity="1"
   objecttolerance="10"
   gridtolerance="10"
   guidetolerance="10"
   inkscape:pageopacity="0"
   inkscape:pageshadow="2"
   inkscape:window-width="1920"
   inkscape:window-height="1137"
   id="namedview474"
   showgrid="false"
   inkscape:zoom="0.45254834"
   inkscape:cx="-66.915672"
   inkscape:cy="100.38434"
   inkscape:window-x="-8"
   inkscape:window-y="-8"
   inkscape:window-maximized="1"
   inkscape:current-layer="svg472" />
<g
   id="g142"
   transform="translate(-1017.6011,-41.27994)">
			</g><g
   id="g2004"
   transform="translate(-361.59598,-72.90599)"><path
     style="fill:#0091d2"
     inkscape:connector-curvature="0"
     id="path242"
     d="m 392.23,209.009 v 0 m 25.843,-101.667 c 2.453,-2.073 4.913,-3.472 7.373,-4.286 -0.702,0.015 -1.361,0.109 -2.067,0.128 -2.962,0.085 -5.827,0.268 -8.615,0.538 -0.803,0.078 -1.723,0.059 -2.482,0.154 l -0.998,0.18 c -1.463,0.166 -0.824,0.104 -2.116,0.345 -0.22,0.037 -0.438,0.118 -0.659,0.161 2.414,-0.188 10.223,-0.686 10.223,-0.686 -1.91,0.675 -3.775,1.569 -5.511,2.679 l -12.002,1.368 c -0.5,0.381 -1.003,0.743 -1.496,1.18 -0.409,0.362 -0.784,0.796 -1.186,1.187 l 0.211,-0.021 11.265,-1.256 c -1.374,1.182 -2.69,2.494 -3.938,3.951 l -10.902,1.246 c -0.126,0.172 -0.235,0.37 -0.359,0.544 -0.191,0.271 -0.369,0.564 -0.557,0.843 -0.63,0.909 -1.271,1.793 -1.85,2.805 l 0.257,-0.026 10.066,-1.034 c -1.086,1.642 -2.098,3.407 -3.061,5.24 l -9.886,1.037 h -0.001 c -0.687,1.53 -1.328,3.13 -1.931,4.788 l 0.147,-0.015 9.331,-0.78 c -0.822,1.958 -1.57,3.993 -2.257,6.095 l -9.167,0.785 c -0.545,1.958 -1.047,3.958 -1.483,6.034 l 0.052,-0.003 8.822,-0.613 c -0.546,2.205 -1.038,4.439 -1.435,6.74 l -8.659,0.608 c -0.2,1.391 -0.329,2.825 -0.48,4.249 -0.059,0.593 -0.143,1.171 -0.194,1.766 -0.024,0.236 -0.061,0.46 -0.079,0.696 h 0.04 c -0.027,0.331 -0.027,0.67 -0.049,1.005 l 8.404,-0.34 c -0.178,1.92 -0.326,3.855 -0.405,5.801 l -8.292,0.262 c 0,0.003 0,0.003 0,0.003 l -0.085,0.003 c -0.021,0.611 0.003,1.229 -0.006,1.84 -0.019,1.003 -0.019,1.991 -0.01,2.996 0.007,0.655 -0.023,1.298 -0.006,1.955 h 0.093 c 0.022,0.935 0.093,1.87 0.126,2.802 h 8.295 c 0.065,1.308 0.102,2.62 0.219,3.93 h -8.376 c 0.019,0.205 0.049,0.407 0.064,0.612 0.063,0.705 0.154,1.396 0.23,2.098 0.118,1.14 0.217,2.285 0.371,3.423 l 0.131,0.014 c 0.139,1.002 0.264,2.007 0.396,3.013 l 8.574,0.958 c 0.225,1.232 0.477,2.462 0.757,3.678 l -8.733,-0.946 c -0.006,-0.017 -0.014,-0.047 -0.017,-0.068 -0.02,-0.081 -0.027,-0.162 -0.041,-0.241 0.017,0.096 0.03,0.194 0.047,0.292 0.068,0.339 0.167,0.637 0.24,0.972 0.366,1.68 0.75,3.33 1.186,4.903 l 0.027,0.003 c 0.361,1.315 0.796,2.518 1.206,3.753 l 8.821,1.109 c 0.255,0.772 0.512,1.549 0.775,2.299 l -8.884,-1.083 c 0.082,0.228 0.179,0.429 0.267,0.657 0.356,0.94 0.729,1.841 1.11,2.732 0.194,0.454 0.364,0.952 0.564,1.389 l 0.083,0.012 c 0.633,1.381 1.326,2.619 2.02,3.861 l 8.644,1.241 c 0.247,0.484 0.493,0.988 0.751,1.454 l -8.757,-1.351 c 0.194,0.328 0.413,0.587 0.612,0.904 0.65,1.039 1.313,2.027 2.003,2.945 0.115,0.155 0.219,0.346 0.337,0.497 l 0.066,0.012 c 0.786,1.013 1.618,1.842 2.439,2.698 l 8.216,1.382 c 0.378,0.431 0.748,0.865 1.132,1.249 l -8.362,-1.455 c 0.176,0.169 0.364,0.268 0.542,0.428 0.896,0.805 1.802,1.524 2.728,2.141 0.185,0.123 0.363,0.315 0.547,0.43 0.14,0.086 0.288,0.092 0.428,0.174 1.703,1.01 3.433,1.822 5.182,2.182 0.525,0.126 1.053,0.224 1.612,0.266 1.912,0.144 6.277,0.657 10.054,1.073 -7.826,-4.232 -14.756,-17.139 -18.701,-35.643 -6.645,-31.204 0.96,-67.441 17.009,-80.951 m 34.261,88.377 c 5.202,-7.696 7.543,-28.299 5.224,-46.034 -2.314,-17.729 -8.416,-25.865 -13.609,-18.174 -5.203,7.685 -7.543,28.296 -5.225,46.025 2.315,17.726 8.408,25.868 13.61,18.183 m 2.996,8.196 c -6.531,9.65 -14.182,-0.575 -17.082,-22.821 -2.914,-22.257 0.025,-48.128 6.557,-57.778 6.523,-9.662 14.173,0.561 17.08,22.816 2.912,22.258 -0.024,48.13 -6.555,57.783 m -5.957,-97.762 c -1.406,-0.199 -4.327,0.241 -6.452,1.766 l -11.527,-1.364 c 1.322,-1.149 1.955,-1.564 3.29,-2.202 z m -20.428,2.859 11.634,1.211 c -0.356,0.324 -0.721,0.648 -1.072,1.018 -0.85,0.874 -1.658,1.868 -2.442,2.931 l -11.146,-1.209 c 0.962,-1.457 1.976,-2.758 3.026,-3.951 m 5.681,9.383 c -0.896,1.626 -1.743,3.373 -2.533,5.24 l -11.089,-1.053 c 0.741,-1.828 1.508,-3.596 2.351,-5.24 z m -4.184,10.049 c -0.653,1.944 -1.251,3.984 -1.797,6.095 l -11.2,-0.833 c 0.529,-2.105 1.11,-4.135 1.746,-6.095 z m -14.377,11.464 11.399,0.646 c -0.436,2.194 -0.817,4.439 -1.138,6.732 l -11.364,-0.639 c 0.307,-2.299 0.69,-4.534 1.103,-6.739 m -1.872,14.7 11.362,0.4 c -0.14,1.882 -0.269,3.771 -0.34,5.681 l -11.327,-0.253 c 0.052,-1.962 0.171,-3.903 0.305,-5.828 m -0.201,15.687 h 11.231 c 0.044,1.308 0.063,2.62 0.141,3.93 h -11.193 c -0.093,-1.31 -0.123,-2.622 -0.179,-3.93 m 1.366,14.308 10.875,-0.914 c 0.151,1.117 0.273,2.253 0.466,3.366 l -10.813,0.964 c -0.016,-0.091 -0.034,-0.164 -0.049,-0.254 -0.191,-1.039 -0.317,-2.115 -0.479,-3.162 m 2.756,13.46 10.419,-1.125 c 0.173,0.702 0.343,1.407 0.516,2.089 l -10.392,1.069 c -0.183,-0.656 -0.365,-1.355 -0.543,-2.033 m 3.586,10.981 10.033,-1.339 c 0.172,0.456 0.345,0.927 0.523,1.371 l -10.013,1.283 c -0.186,-0.427 -0.358,-0.879 -0.543,-1.315 m 4.764,8.839 9.457,-1.378 c 0.203,0.306 0.399,0.625 0.611,0.904 l -9.481,1.286 c -0.203,-0.25 -0.394,-0.544 -0.587,-0.812 m 45.369,-76.29 c -2.088,-12.612 -5.789,-22.088 -10.209,-28.081 -0.008,-0.011 -0.025,-0.024 -0.03,-0.04 -0.39,-0.755 -0.922,-1.53 -1.618,-2.321 -0.126,-0.144 -0.161,-0.281 -0.299,-0.425 -0.148,-0.156 -0.307,-0.201 -0.452,-0.351 -1.679,-1.698 -3.395,-2.975 -5.157,-3.998 -0.23,-0.132 -0.441,-0.398 -0.675,-0.522 h -0.009 c 0.003,0.003 0.006,0.003 0.009,0.003 h -0.024 l -16.036,-2.182 c 0,0 0.541,-0.404 2.241,-0.631 0.002,0 0.002,0 0.002,0 -0.31,0 -0.595,-0.02 -0.906,-0.02 -1.818,0 -4.098,-0.02 -6.588,-0.02 v 0 c -0.037,0.009 -0.07,0.031 -0.112,0.04 -0.009,0 -0.013,0 -0.021,0 -2.865,0.702 -5.662,2.061 -8.265,4.243 -16.054,13.505 -23.655,49.753 -17.006,80.95 4.028,18.919 11.265,31.922 19.43,35.9 0.251,0.042 0.409,0.048 0.437,0.045 7.793,0.126 19.805,-0.121 26.726,-2.055 2.706,-0.755 4.776,-2.43 6.06,-3.772 11.8,-12.813 17.398,-47.185 12.502,-76.763"
     clip-path="url(#SVGID_18_)" /><path
     style="fill:#0091d2"
     inkscape:connector-curvature="0"
     id="path244"
     d="m 481.906,182.688 c 2.563,-3.113 7.132,-3.591 10.211,-1.063 3.077,2.527 3.496,7.104 0.938,10.223 -2.561,3.114 -19.904,12.813 -19.904,12.813 0,0 6.194,-18.858 8.755,-21.973"
     clip-path="url(#SVGID_18_)" /><path
     style="fill:#0091d2"
     inkscape:connector-curvature="0"
     id="path246"
     d="m 480.84,206.526 c 3.639,-1.739 7.979,-0.242 9.7,3.349 1.72,3.592 0.169,7.916 -3.471,9.663 -3.636,1.739 -23.452,3.197 -23.452,3.197 0,0 13.586,-14.468 17.223,-16.209"
     clip-path="url(#SVGID_18_)" /><path
     style="fill:#0091d2"
     inkscape:connector-curvature="0"
     id="path248"
     d="m 374.418,182.688 c -2.564,-3.113 -7.132,-3.591 -10.209,-1.063 -3.078,2.527 -3.496,7.104 -0.938,10.223 2.559,3.114 19.904,12.813 19.904,12.813 0,0 -6.196,-18.858 -8.757,-21.973"
     clip-path="url(#SVGID_18_)" /><path
     style="fill:#0091d2"
     inkscape:connector-curvature="0"
     id="path250"
     d="m 375.488,206.526 c -3.64,-1.739 -7.98,-0.242 -9.702,3.349 -1.723,3.592 -0.17,7.916 3.468,9.663 3.639,1.739 23.455,3.197 23.455,3.197 0,0 -13.586,-14.468 -17.221,-16.209"
     clip-path="url(#SVGID_18_)" /><g
     id="g274">
				<defs
   id="defs257">
					<rect
   id="SVGID_19_"
   width="596.92999"
   height="875.5"
   x="0"
   y="0" />
				</defs>
				<clipPath
   id="SVGID_20_">
					<use
   xlink:href="#SVGID_19_"
   overflow="visible"
   id="use259"
   style="overflow:visible"
   x="0"
   y="0"
   width="100%"
   height="100%" />
				</clipPath>
				<path
   clip-path="url(#SVGID_20_)"
   stroke-miterlimit="10"
   d="m 478.589,125.845 c -1.931,2.344 -5.369,2.703 -7.687,0.799 -2.316,-1.9 -2.629,-5.346 -0.704,-7.693 1.928,-2.344 14.981,-9.645 14.981,-9.645 0,0 -4.665,14.194 -6.59,16.539"
   id="path262"
   inkscape:connector-curvature="0"
   style="fill:none;stroke:#0091d2;stroke-width:2.24620008;stroke-miterlimit:10" />
				<path
   clip-path="url(#SVGID_20_)"
   stroke-miterlimit="10"
   d="m 484.203,150.183 c -1.926,2.344 -5.367,2.703 -7.685,0.801 -2.315,-1.902 -2.63,-5.348 -0.705,-7.695 1.928,-2.344 14.981,-9.644 14.981,-9.644 0,0 -4.663,14.193 -6.591,16.538"
   id="path264"
   inkscape:connector-curvature="0"
   style="fill:none;stroke:#0091d2;stroke-width:2.24620008;stroke-miterlimit:10" />
				<path
   clip-path="url(#SVGID_20_)"
   stroke-miterlimit="10"
   d="m 499.181,125.845 c -1.928,2.344 -5.369,2.703 -7.684,0.799 -2.316,-1.9 -2.631,-5.346 -0.703,-7.693 1.925,-2.344 14.981,-9.645 14.981,-9.645 0,0 -4.667,14.194 -6.594,16.539"
   id="path266"
   inkscape:connector-curvature="0"
   style="fill:none;stroke:#0091d2;stroke-width:2.24620008;stroke-miterlimit:10" />
				<path
   clip-path="url(#SVGID_20_)"
   stroke-miterlimit="10"
   d="m 504.799,150.183 c -1.93,2.344 -5.369,2.703 -7.686,0.801 -2.317,-1.902 -2.63,-5.348 -0.705,-7.695 1.925,-2.344 14.982,-9.644 14.982,-9.644 0,0 -4.666,14.193 -6.591,16.538"
   id="path268"
   inkscape:connector-curvature="0"
   style="fill:none;stroke:#0091d2;stroke-width:2.24620008;stroke-miterlimit:10" />
				<path
   clip-path="url(#SVGID_20_)"
   stroke-miterlimit="10"
   d="m 519.775,125.845 c -1.931,2.344 -5.368,2.703 -7.687,0.799 -2.315,-1.9 -2.628,-5.346 -0.703,-7.693 1.928,-2.344 14.981,-9.645 14.981,-9.645 0,0 -4.666,14.194 -6.591,16.539"
   id="path270"
   inkscape:connector-curvature="0"
   style="fill:none;stroke:#0091d2;stroke-width:2.24620008;stroke-miterlimit:10" />
				<path
   clip-path="url(#SVGID_20_)"
   d="m 541.467,104.989 c 0,0 -0.654,-11.54 -17.699,-9.552 0,0 4.195,-9.473 -5.245,-12.733 -0.024,0.078 1.706,-9.209 -9.306,-9.686 -8.063,-0.72 -13.175,2.125 -14.944,5.838 0,0 -23.026,-2.344 -18.089,12.678 -0.03,0.065 -19.979,0.124 -12.718,13.455 z"
   id="path272"
   inkscape:connector-curvature="0"
   style="fill:#0091d2" />
			</g></g><g
   id="g304"
   transform="translate(-1017.6011,-41.27994)">
			</g><g
   id="g312"
   transform="translate(-1017.6011,-41.27994)">
				<defs
   id="defs307">
					<rect
   y="0"
   x="0"
   height="875.5"
   width="596.92999"
   id="SVGID_21_" />
				</defs>
				<clipPath
   id="SVGID_22_">
					<use
   height="100%"
   width="100%"
   y="0"
   x="0"
   style="overflow:visible"
   id="use309"
   overflow="visible"
   xlink:href="#SVGID_21_" />
				</clipPath>
			</g><g
   id="Layer_8"
   transform="translate(-1017.6011,-41.27994)">
		</g>

</svg>