<?xml version="1.0" encoding="UTF-8" standalone="no"?>
<!-- Generator: Adobe Illustrator 14.0.0, SVG Export Plug-In . SVG Version: 6.00 Build 43363)  -->

<svg
   xmlns:dc="http://purl.org/dc/elements/1.1/"
   xmlns:cc="http://creativecommons.org/ns#"
   xmlns:rdf="http://www.w3.org/1999/02/22-rdf-syntax-ns#"
   xmlns:svg="http://www.w3.org/2000/svg"
   xmlns="http://www.w3.org/2000/svg"
   xmlns:xlink="http://www.w3.org/1999/xlink"
   xmlns:sodipodi="http://sodipodi.sourceforge.net/DTD/sodipodi-0.dtd"
   xmlns:inkscape="http://www.inkscape.org/namespaces/inkscape"
   version="1.0"
   x="0px"
   y="0px"
   width="185.99506"
   height="123.92642"
   viewBox="0 0 185.99506 123.92643"
   enable-background="new 0 0 596.93 875.5"
   xml:space="preserve"
   id="svg472"
   sodipodi:docname="EU3.svg"
   inkscape:version="0.92.4 (5da689c313, 2019-01-14)"><metadata
   id="metadata478"><rdf:RDF><cc:Work
       rdf:about=""><dc:format>image/svg+xml</dc:format><dc:type
         rdf:resource="http://purl.org/dc/dcmitype/StillImage" /><dc:title /></cc:Work></rdf:RDF></metadata><defs
   id="defs476">
	
	

		
		
		
		
		
		
	
			
			
			
				
			
				
			
				
			
				
			
				
			
				
			
				
			
			
			
			
			
			
			
			
			
			
			
			
			
			
			
			
			
			
			
			
			
			
			
			
			
			
			
			
			
			
			
			
			
			
			
			
			
			
			
			
			
			
			
			
				
			
				
			
				
			
				
			
				
			
				
			
				
			
			
			
			
			
			
			
			
			
			
			
			
			
			
			
			
			
			
			
			
			
			
			
			
			
			
		
				<defs
   id="defs235">
					<rect
   id="SVGID_17_"
   width="596.92999"
   height="875.5"
   x="0"
   y="0" />
				</defs>
				<clipPath
   id="SVGID_18_">
					<use
   xlink:href="#SVGID_17_"
   overflow="visible"
   id="use237"
   style="overflow:visible"
   x="0"
   y="0"
   width="100%"
   height="100%" />
				</clipPath>
				
				
				
				
				
				
			
				<defs
   id="defs215">
					<rect
   id="SVGID_15_"
   width="596.92999"
   height="875.5"
   x="0"
   y="0" />
				</defs>
				<clipPath
   id="SVGID_16_">
					<use
   xlink:href="#SVGID_15_"
   overflow="visible"
   id="use217"
   style="overflow:visible"
   x="0"
   y="0"
   width="100%"
   height="100%" />
				</clipPath>
				
				
				
				
				
			</defs><sodipodi:namedview
   pagecolor="#ffffff"
   bordercolor="#666666"
   borderopacity="1"
   objecttolerance="10"
   gridtolerance="10"
   guidetolerance="10"
   inkscape:pageopacity="0"
   inkscape:pageshadow="2"
   inkscape:window-width="1920"
   inkscape:window-height="1137"
   id="namedview474"
   showgrid="false"
   inkscape:zoom="0.45254834"
   inkscape:cx="241.49108"
   inkscape:cy="337.1312"
   inkscape:window-x="-8"
   inkscape:window-y="-8"
   inkscape:window-maximized="1"
   inkscape:current-layer="svg472" />
<g
   id="g142"
   transform="translate(-709.19434,-305.40479)">
			</g><g
   id="g304"
   transform="translate(-709.19434,-305.40479)">
			</g><g
   id="g312"
   transform="translate(-709.19434,-305.40479)">
				<defs
   id="defs307">
					<rect
   y="0"
   x="0"
   height="875.5"
   width="596.92999"
   id="SVGID_21_" />
				</defs>
				<clipPath
   id="SVGID_22_">
					<use
   height="100%"
   width="100%"
   y="0"
   x="0"
   style="overflow:visible"
   id="use309"
   overflow="visible"
   xlink:href="#SVGID_21_" />
				</clipPath>
			</g><g
   id="Layer_8"
   transform="translate(-709.19434,-305.40479)">
		</g><g
   id="g2017"
   transform="translate(-141.27444,-648.38641)"><path
     style="fill:#0091d2"
     inkscape:connector-curvature="0"
     id="path220"
     d="m 151.466,755.749 v 0 m 25.845,-101.666 c 2.455,-2.073 4.915,-3.472 7.375,-4.286 -0.702,0.013 -1.362,0.109 -2.069,0.128 -2.96,0.085 -5.828,0.267 -8.616,0.538 -0.803,0.076 -1.721,0.058 -2.481,0.152 l -0.997,0.182 c -1.466,0.165 -0.826,0.103 -2.116,0.344 -0.22,0.037 -0.442,0.116 -0.662,0.161 2.417,-0.189 10.224,-0.687 10.224,-0.687 -1.912,0.675 -3.776,1.569 -5.511,2.681 l -12.001,1.368 c -0.5,0.381 -1.004,0.742 -1.499,1.178 -0.407,0.362 -0.784,0.796 -1.183,1.188 l 0.211,-0.023 11.262,-1.256 c -1.373,1.183 -2.69,2.493 -3.936,3.952 l -10.904,1.244 c -0.126,0.173 -0.236,0.371 -0.359,0.547 -0.19,0.268 -0.368,0.564 -0.555,0.842 -0.629,0.91 -1.272,1.792 -1.851,2.806 l 0.259,-0.026 10.065,-1.033 c -1.086,1.641 -2.097,3.405 -3.061,5.239 l -9.885,1.038 h -0.003 c -0.684,1.529 -1.324,3.127 -1.929,4.787 l 0.149,-0.015 9.33,-0.78 c -0.822,1.957 -1.573,3.991 -2.257,6.095 l -9.165,0.784 c -0.547,1.958 -1.05,3.956 -1.485,6.032 l 0.053,-0.003 8.819,-0.611 c -0.544,2.205 -1.035,4.439 -1.432,6.739 l -8.659,0.609 c -0.203,1.391 -0.333,2.823 -0.48,4.248 -0.062,0.591 -0.144,1.171 -0.197,1.765 -0.021,0.236 -0.059,0.461 -0.079,0.696 h 0.042 c -0.029,0.333 -0.029,0.672 -0.05,1.008 l 8.403,-0.342 c -0.177,1.921 -0.325,3.855 -0.403,5.801 l -8.292,0.264 c 0,0.003 0,0.003 0,0.003 l -0.088,10e-4 c -0.019,0.611 0.003,1.229 -0.005,1.84 -0.017,1.004 -0.017,1.991 -0.008,2.998 0.006,0.654 -0.022,1.296 -0.005,1.955 h 0.093 c 0.021,0.936 0.092,1.869 0.126,2.803 h 8.295 c 0.064,1.308 0.1,2.618 0.218,3.929 h -8.376 c 0.017,0.206 0.048,0.408 0.064,0.614 0.062,0.705 0.156,1.393 0.231,2.095 0.118,1.141 0.217,2.287 0.37,3.425 l 0.133,0.014 c 0.137,1.001 0.26,2.007 0.392,3.014 l 8.576,0.957 c 0.225,1.231 0.478,2.463 0.758,3.677 l -8.734,-0.946 c -0.005,-0.017 -0.015,-0.047 -0.018,-0.065 -0.016,-0.083 -0.024,-0.165 -0.038,-0.244 0.017,0.097 0.027,0.194 0.044,0.293 0.071,0.34 0.168,0.636 0.242,0.972 0.365,1.68 0.749,3.33 1.185,4.902 l 0.027,0.002 c 0.363,1.316 0.795,2.521 1.208,3.754 l 8.82,1.111 c 0.254,0.77 0.514,1.549 0.777,2.297 l -8.887,-1.083 c 0.085,0.228 0.179,0.431 0.267,0.657 0.357,0.941 0.729,1.843 1.112,2.732 0.194,0.454 0.365,0.95 0.564,1.39 l 0.082,0.012 c 0.635,1.381 1.327,2.621 2.021,3.859 l 8.644,1.243 c 0.246,0.484 0.493,0.986 0.752,1.453 l -8.76,-1.35 c 0.197,0.326 0.415,0.587 0.616,0.902 0.651,1.04 1.311,2.029 2.001,2.947 0.116,0.154 0.22,0.344 0.337,0.496 l 0.068,0.012 c 0.785,1.015 1.616,1.843 2.44,2.697 l 8.216,1.383 c 0.375,0.43 0.747,0.863 1.131,1.247 l -8.364,-1.453 c 0.175,0.167 0.365,0.267 0.545,0.428 0.895,0.807 1.798,1.524 2.725,2.142 0.186,0.124 0.362,0.315 0.549,0.431 0.14,0.085 0.285,0.09 0.426,0.172 1.705,1.013 3.434,1.824 5.182,2.185 0.522,0.125 1.053,0.224 1.613,0.265 1.912,0.144 6.275,0.658 10.051,1.073 -7.825,-4.231 -14.754,-17.139 -18.699,-35.642 -6.648,-31.207 0.959,-67.443 17.006,-80.953 m 34.262,88.376 c 5.2,-7.696 7.541,-28.3 5.222,-46.032 -2.315,-17.729 -8.416,-25.868 -13.611,-18.177 -5.202,7.687 -7.541,28.297 -5.224,46.026 2.317,17.726 8.41,25.869 13.613,18.183 m 2.995,8.195 c -6.531,9.652 -14.184,-0.575 -17.082,-22.821 -2.915,-22.257 0.024,-48.127 6.556,-57.779 6.521,-9.66 14.173,0.563 17.079,22.816 2.913,22.26 -0.021,48.133 -6.553,57.784 m -5.959,-97.762 c -1.405,-0.197 -4.326,0.244 -6.451,1.77 l -11.526,-1.365 c 1.319,-1.149 1.954,-1.564 3.29,-2.203 z m -20.425,2.859 11.633,1.21 c -0.357,0.327 -0.722,0.65 -1.073,1.021 -0.848,0.871 -1.657,1.867 -2.443,2.932 l -11.145,-1.21 c 0.962,-1.46 1.978,-2.759 3.028,-3.953 m 5.68,9.385 c -0.895,1.625 -1.744,3.372 -2.532,5.239 l -11.089,-1.054 c 0.739,-1.828 1.508,-3.596 2.346,-5.239 z m -4.185,10.048 c -0.653,1.945 -1.249,3.985 -1.795,6.096 l -11.201,-0.833 c 0.528,-2.105 1.109,-4.135 1.747,-6.095 z m -14.375,11.464 11.397,0.645 c -0.436,2.193 -0.817,4.439 -1.138,6.734 l -11.362,-0.64 c 0.306,-2.299 0.688,-4.533 1.103,-6.739 m -1.873,14.7 11.364,0.401 c -0.141,1.881 -0.271,3.77 -0.34,5.682 l -11.33,-0.255 c 0.053,-1.961 0.171,-3.904 0.306,-5.828 m -0.202,15.688 h 11.231 c 0.046,1.308 0.065,2.618 0.141,3.929 h -11.192 c -0.093,-1.311 -0.124,-2.621 -0.18,-3.929 m 1.368,14.307 10.875,-0.916 c 0.151,1.119 0.271,2.254 0.466,3.367 l -10.813,0.963 c -0.017,-0.091 -0.033,-0.161 -0.047,-0.252 -0.195,-1.04 -0.322,-2.114 -0.481,-3.162 m 2.755,13.461 10.42,-1.128 c 0.174,0.702 0.342,1.407 0.516,2.091 l -10.392,1.068 c -0.185,-0.655 -0.365,-1.355 -0.544,-2.031 m 3.587,10.981 10.031,-1.341 c 0.171,0.454 0.345,0.926 0.522,1.371 l -10.013,1.283 c -0.183,-0.424 -0.357,-0.877 -0.54,-1.313 m 4.762,8.837 9.458,-1.377 c 0.203,0.306 0.401,0.626 0.613,0.902 l -9.483,1.286 c -0.202,-0.248 -0.393,-0.541 -0.588,-0.811 m 45.368,-76.289 c -2.086,-12.611 -5.757,-22.054 -10.209,-28.082 -4.453,-6.021 -7.995,-7.532 -8.228,-7.654 h -0.009 c 0.003,0.003 0.006,0.003 0.009,0.003 h -0.027 l -16.035,-2.184 c 0,0 0.54,-0.403 2.241,-0.631 0.003,0 0.003,0 0.003,0 -0.312,0 -0.596,-0.019 -0.908,-0.019 -1.818,0 -4.096,-0.02 -6.587,-0.02 v 0 c -0.039,0.008 -0.072,0.029 -0.111,0.038 -0.01,0 -0.014,0 -0.023,0 -2.867,0.702 -5.664,2.059 -8.263,4.243 -16.057,13.505 -23.657,49.752 -17.007,80.95 4.029,18.92 11.266,31.923 19.43,35.901 0.25,0.041 0.407,0.046 0.436,0.043 7.794,0.127 19.805,-0.12 26.728,-2.053 2.706,-0.758 4.774,-2.43 6.058,-3.771 11.802,-12.814 17.4,-47.186 12.502,-76.764"
     clip-path="url(#SVGID_16_)" /><path
     style="fill:#0091d2"
     inkscape:connector-curvature="0"
     id="path222"
     d="m 247.681,742.084 c -6.593,-5.88 -13.185,-11.758 -19.778,-17.642 h -9.196 -4.913 v -4.915 -18.362 -4.914 h 4.913 9.196 l 19.778,-17.636 8.184,-7.3 v 10.965 56.137 10.968 z"
     clip-path="url(#SVGID_16_)" /><g
     id="db">
			<g
   id="Layer_3">
				<path
   style="fill:none;stroke:#000000;stroke-width:14.03899956;stroke-linecap:round;stroke-linejoin:round"
   inkscape:connector-curvature="0"
   id="path455"
   d="m 303.765,655.488 c 10.269,14.705 16.485,33.943 16.485,54.987 0,20.925 -6.145,40.059 -16.304,54.736 m -18.259,-94.595 c 7.876,10.367 12.709,24.382 12.709,39.811 0,15.281 -4.742,29.178 -12.489,39.518 m -17.641,-64.327 c 5.499,6.054 8.965,14.913 8.965,24.787 0,9.674 -3.328,18.374 -8.629,24.415" />
			</g>
			<g
   style="display:none"
   display="none"
   id="Layer_5">
				
					<path
   style="display:inline;fill:none;stroke:#ffffff;stroke-width:11.23120022;stroke-linecap:round;stroke-linejoin:round"
   inkscape:connector-curvature="0"
   id="path458"
   d="m 268.266,685.618 c 5.499,6.054 8.965,14.913 8.965,24.787 0,9.674 -3.328,18.374 -8.629,24.415"
   display="inline" />
			</g>
			<g
   style="display:none"
   display="none"
   id="Layer_6">
				
					<path
   style="display:inline;fill:none;stroke:#ffffff;stroke-width:11.23120022;stroke-linecap:round;stroke-linejoin:round"
   inkscape:connector-curvature="0"
   id="path461"
   d="m 285.687,670.616 c 7.876,10.365 12.708,24.385 12.708,39.811 0,15.281 -4.742,29.175 -12.487,39.521"
   display="inline" />
			</g>
			<g
   id="Layer_4">
				<path
   style="fill:none;stroke:#ffffff;stroke-width:11.23120022;stroke-linecap:round;stroke-linejoin:round"
   inkscape:connector-curvature="0"
   id="path464"
   d="m 303.765,655.486 c 10.269,14.71 16.485,33.942 16.485,54.989 0,20.925 -6.145,40.059 -16.304,54.736" />
			</g>
		</g></g>

</svg>