<?xml version="1.0" encoding="UTF-8" standalone="no"?>
<!-- Created with Inkscape (http://www.inkscape.org/) -->

<svg
   xmlns:dc="http://purl.org/dc/elements/1.1/"
   xmlns:cc="http://creativecommons.org/ns#"
   xmlns:rdf="http://www.w3.org/1999/02/22-rdf-syntax-ns#"
   xmlns:svg="http://www.w3.org/2000/svg"
   xmlns="http://www.w3.org/2000/svg"
   xmlns:sodipodi="http://sodipodi.sourceforge.net/DTD/sodipodi-0.dtd"
   xmlns:inkscape="http://www.inkscape.org/namespaces/inkscape"
   width="40.469044mm"
   height="41.903175mm"
   viewBox="0 0 40.469044 41.903175"
   version="1.1"
   id="svg845"
   inkscape:version="0.92.4 (5da689c313, 2019-01-14)"
   sodipodi:docname="multiseason.svg">
  <defs
     id="defs839" />
  <sodipodi:namedview
     id="base"
     pagecolor="#ffffff"
     bordercolor="#666666"
     borderopacity="1.0"
     inkscape:pageopacity="0.0"
     inkscape:pageshadow="2"
     inkscape:zoom="0.7"
     inkscape:cx="-167.07233"
     inkscape:cy="196.30985"
     inkscape:document-units="mm"
     inkscape:current-layer="layer1"
     showgrid="false"
     inkscape:snap-global="false"
     showguides="true"
     inkscape:guide-bbox="true"
     inkscape:window-width="1920"
     inkscape:window-height="1137"
     inkscape:window-x="1912"
     inkscape:window-y="-8"
     inkscape:window-maximized="1">
    <sodipodi:guide
       position="-15.089999,127.7756"
       orientation="0,1"
       id="guide2094"
       inkscape:locked="false" />
    <sodipodi:guide
       position="-22.640363,85.814278"
       orientation="0,1"
       id="guide2098"
       inkscape:locked="false" />
    <sodipodi:guide
       position="-37.607455,106.79494"
       orientation="0,1"
       id="guide2100"
       inkscape:locked="false" />
    <sodipodi:guide
       position="-23.843075,106.2604"
       orientation="1,0"
       id="guide2102"
       inkscape:locked="false" />
  </sodipodi:namedview>
  <metadata
     id="metadata842">
    <rdf:RDF>
      <cc:Work
         rdf:about="">
        <dc:format>image/svg+xml</dc:format>
        <dc:type
           rdf:resource="http://purl.org/dc/dcmitype/StillImage" />
        <dc:title></dc:title>
      </cc:Work>
    </rdf:RDF>
  </metadata>
  <g
     inkscape:label="Layer 1"
     inkscape:groupmode="layer"
     id="layer1"
     transform="translate(-90.860908,-218.90256)">
    <g
       id="g2106"
       transform="translate(44.223214,85.800595)">
      <path
         inkscape:connector-curvature="0"
         id="path3814"
         d="m 62.919053,133.10212 c -0.306472,-0.006 -0.533402,0.16796 -0.716751,0.51056 -0.33433,0.62469 -0.287197,0.70488 1.654162,2.81171 l 1.265039,1.37304 v 2.66186 c 0,1.46392 -0.110384,2.66133 -0.245462,2.66133 -0.13508,0 -1.389004,-0.49214 -2.786393,-1.09398 -1.397402,-0.60184 -2.595353,-1.03957 -2.661854,-0.97307 -0.06654,0.0665 -0.316034,1.48143 -0.555006,3.14451 -0.238969,1.66308 -0.458959,3.05407 -0.488857,3.09077 -0.02988,0.0367 -1.109678,-0.52504 -2.399337,-1.24799 l -2.345077,-1.31413 -0.676445,-2.4567 c -0.55667,-2.02074 -0.774742,-2.47035 -1.227832,-2.53524 -1.09156,-0.15639 -1.202398,0.47735 -0.519348,2.96002 0.51608,1.87576 0.567749,2.33658 0.274919,2.44895 -0.19837,0.0761 -1.350394,0.4078 -2.559534,0.7369 -2.00272,0.5451 -2.205631,0.66064 -2.282031,1.30173 -0.04971,0.41711 0.06425,0.76076 0.279569,0.84336 0.19981,0.0767 1.429777,-0.14573 2.733167,-0.49454 l 2.369364,-0.63459 2.207617,1.26246 c 1.214051,0.69413 2.325947,1.38078 2.471166,1.526 0.175662,0.17566 -0.636624,0.95559 -2.426724,2.33061 -2.09561,1.60968 -2.61059,2.12768 -2.32854,2.34094 2.597751,1.96418 4.699972,3.68867 4.699972,3.85558 0,0.1146 -0.964875,0.76471 -2.144056,1.44487 l -2.143538,1.23662 -2.352311,-0.58136 c -2.52849,-0.62477 -3.149679,-0.57482 -3.149679,0.25322 0,0.6601 0.438631,0.88604 2.844271,1.46502 2.19801,0.52902 2.167783,0.45971 1.389063,3.18275 -0.6836,2.39048 -0.675388,2.96103 0.04599,3.18999 0.78073,0.24779 1.126795,-0.28843 1.685685,-2.61173 0.25148,-1.04544 0.567829,-2.04163 0.702799,-2.2133 0.26541,-0.33758 4.390239,-2.73058 4.706689,-2.73058 0.10582,0 0.335303,1.10133 0.510563,2.44739 0.17525,1.34607 0.38167,2.8206 0.45837,3.27629 l 0.139009,0.82837 2.821017,-1.13481 2.8205,-1.1343 0.07596,2.6417 0.07545,2.6417 -1.464512,1.58181 c -1.559941,1.68492 -1.794814,2.41522 -0.925525,2.88045 0.472411,0.25283 0.769805,0.0666 2.391584,-1.49914 l 1.852084,-1.788 0.09043,0.0904 v -35.45624 l -0.108003,0.1049 -1.698604,-1.63091 c -1.117076,-1.07266 -1.848241,-1.58481 -2.35903,-1.59524 z m -1.993159,10.52235 c 0.279411,-0.0235 0.910971,0.17969 2.001943,0.63614 l 2.061374,0.86248 0.07493,2.96777 c 0.04114,1.63219 -0.01838,2.96506 -0.132291,2.96106 -0.429099,-0.0134 -4.83743,-2.69341 -4.83743,-2.9409 0,-0.4158 0.548642,-4.03294 0.665591,-4.38837 0.01883,-0.0572 0.07274,-0.0904 0.165883,-0.0982 z m -2.185913,7.18509 2.658753,1.5136 c 1.462378,0.83238 2.659853,1.58982 2.661851,1.68362 0.0015,0.0938 -1.176224,0.83793 -2.616893,1.65365 -1.44068,0.81572 -2.729791,1.48311 -2.864943,1.48311 -0.135139,0 -1.109009,-0.67046 -2.164207,-1.49035 -1.547252,-1.20221 -1.850631,-1.55202 -1.566831,-1.80609 0.193551,-0.17327 1.148763,-0.92766 2.122353,-1.67638 z m 6.230109,6.0694 c 0.08344,0 0.151413,1.4104 0.151413,3.13366 v 3.13314 l -1.785937,0.69298 c -0.982271,0.38138 -1.979573,0.76473 -2.216402,0.85163 -0.4807,0.17639 -0.623467,-0.34228 -0.912606,-3.3135 l -0.167431,-1.71979 2.389518,-1.38906 c 1.314228,-0.76398 2.458046,-1.38906 2.541445,-1.38906 z"
         style="fill:#009aff;fill-opacity:1;stroke-width:0.26458332" />
      <path
         inkscape:connector-curvature="0"
         id="path3774"
         d="m 67.071029,133.11491 c -0.005,-1.6e-4 -0.0093,0.003 -0.01406,0.004 v 4.42289 c 1.076899,-0.0179 1.985794,-0.0587 2.023673,-0.0919 0.03862,-0.0338 -0.389058,-1.09015 -0.950305,-2.34759 -0.656038,-1.46982 -0.89932,-1.98176 -1.05927,-1.9869 z m 10.119672,2.72703 c -0.08711,-0.0968 -3.913857,2.64067 -3.933264,2.81363 -0.0094,0.0843 0.29941,0.27617 0.686236,0.42631 0.38681,0.15016 1.137342,0.58722 1.667739,0.97137 0.530387,0.38413 1.022895,0.70724 1.094734,0.71734 0.125576,0.0182 0.599373,-4.80107 0.484555,-4.92865 z m -10.101721,5.76521 c -0.01083,-1e-5 -0.02124,4.2e-4 -0.03209,4.4e-4 v 23.75272 c 0.451537,-0.002 0.936347,-0.0495 1.573302,-0.1366 9.195552,-1.2578 13.227767,-12.44155 7.097404,-19.68561 -2.191057,-2.5891 -4.736534,-3.80661 -8.199398,-3.92337 -0.147977,-0.006 -0.294358,-0.008 -0.439259,-0.008 z m 16.995722,1.96235 c -0.744282,-0.015 -2.387173,0.0841 -3.596553,0.2366 l -0.816137,0.10311 0.590526,0.96288 c 0.32472,0.52961 0.796466,1.42183 1.048586,1.98288 l 0.458491,1.02002 1.353248,-2.05833 c 0.744289,-1.1322 1.354941,-2.11864 1.357091,-2.19181 8.27e-4,-0.0326 -0.147149,-0.0504 -0.395252,-0.0554 z m -1.298979,8.18645 -0.05126,2.27083 c -0.02819,1.249 -0.02496,2.27217 0.0075,2.27303 0.360093,0.0125 4.499154,-2.22008 4.361415,-2.3525 -0.102682,-0.0986 -0.817708,-0.48669 -1.58912,-0.86198 -0.771419,-0.37531 -1.70097,-0.82783 -2.065554,-1.00573 z m -1.104988,8.20655 c -0.02861,-0.0428 -0.256585,0.3617 -0.506771,0.89859 -0.250195,0.53689 -0.819553,1.50091 -1.265227,2.14225 l -0.81016,1.16599 2.000183,0.13973 c 1.100199,0.0768 2.368452,0.17277 2.818443,0.21336 l 0.818279,0.0737 -1.501091,-2.27797 c -0.825771,-1.2528 -1.525054,-2.31278 -1.553656,-2.35561 z m -4.981848,6.74101 c -0.129613,-0.0149 -0.475692,0.15855 -0.832807,0.42498 -0.408144,0.30447 -1.312887,0.84403 -2.010857,1.19902 l -1.269071,0.64548 2.295009,1.66327 c 1.262399,0.9149 2.322429,1.6412 2.355257,1.61372 0.11142,-0.0932 -0.363062,-5.38034 -0.496089,-5.52816 -0.0091,-0.0101 -0.0229,-0.0162 -0.04143,-0.0184 z m -9.641956,3.12702 v 5.05542 c 0.04159,0.0697 0.07459,0.11873 0.08674,0.11919 0.06813,0.003 0.655534,-1.1489 1.305395,-2.5583 l 1.181473,-2.56274 -2.453538,-0.0509 z"
         style="fill:#ffcc00;fill-opacity:1;stroke-width:0.22361186" />
    </g>
  </g>
</svg>
