<?xml version="1.0" encoding="UTF-8" standalone="no"?>
<!-- Created with Inkscape (http://www.inkscape.org/) -->

<svg
   xmlns:dc="http://purl.org/dc/elements/1.1/"
   xmlns:cc="http://creativecommons.org/ns#"
   xmlns:rdf="http://www.w3.org/1999/02/22-rdf-syntax-ns#"
   xmlns:svg="http://www.w3.org/2000/svg"
   xmlns="http://www.w3.org/2000/svg"
   xmlns:sodipodi="http://sodipodi.sourceforge.net/DTD/sodipodi-0.dtd"
   xmlns:inkscape="http://www.inkscape.org/namespaces/inkscape"
   width="6.0467529mm"
   height="6.0902834mm"
   viewBox="0 0 6.0467529 6.0902834"
   version="1.1"
   id="svg2033"
   inkscape:version="0.92.4 (5da689c313, 2019-01-14)"
   sodipodi:docname="notification-nav.svg">
  <defs
     id="defs2027" />
  <sodipodi:namedview
     id="base"
     pagecolor="#ffffff"
     bordercolor="#666666"
     borderopacity="1.0"
     inkscape:pageopacity="0.0"
     inkscape:pageshadow="2"
     inkscape:zoom="0.35"
     inkscape:cx="-570.00164"
     inkscape:cy="-208.4908"
     inkscape:document-units="mm"
     inkscape:current-layer="layer1"
     showgrid="false"
     fit-margin-top="0"
     fit-margin-left="0"
     fit-margin-right="0"
     fit-margin-bottom="0"
     inkscape:window-width="1920"
     inkscape:window-height="1137"
     inkscape:window-x="-8"
     inkscape:window-y="-8"
     inkscape:window-maximized="1" />
  <metadata
     id="metadata2030">
    <rdf:RDF>
      <cc:Work
         rdf:about="">
        <dc:format>image/svg+xml</dc:format>
        <dc:type
           rdf:resource="http://purl.org/dc/dcmitype/StillImage" />
        <dc:title></dc:title>
      </cc:Work>
    </rdf:RDF>
  </metadata>
  <g
     inkscape:label="Layer 1"
     inkscape:groupmode="layer"
     id="layer1"
     transform="translate(-133.80401,-87.579858)">
    <g
       id="Alert"
       transform="matrix(0.26458333,0,0,0.26458333,-157.63139,2.7809)">
      <path
         id="Path_1"
         data-name="Path 1"
         d="m 20.569,19.22 h -6.864 a 2.746,2.746 0 1 1 -5.491,0 H 1.35 a 1.319,1.319 0 0 1 -1.236,-0.961 1.466,1.466 0 0 1 0.412,-1.51 5.527,5.527 0 0 0 2.2,-4.393 V 8.237 a 8.237,8.237 0 1 1 16.474,0 v 4.119 a 5.527,5.527 0 0 0 2.2,4.393 1.3,1.3 0 0 1 0.412,1.51 1.319,1.319 0 0 1 -1.243,0.961 z"
         transform="translate(1101.938,321)"
         inkscape:connector-curvature="0"
         style="fill:none;fill-rule:evenodd;stroke:#f1f1f1;stroke-width:1" />
    </g>
  </g>
</svg>
