<?xml version="1.0" encoding="UTF-8" standalone="no"?>
<!-- Generator: Adobe Illustrator 18.1.1, SVG Export Plug-In . SVG Version: 6.00 Build 0)  -->

<svg
   xmlns:dc="http://purl.org/dc/elements/1.1/"
   xmlns:cc="http://creativecommons.org/ns#"
   xmlns:rdf="http://www.w3.org/1999/02/22-rdf-syntax-ns#"
   xmlns:svg="http://www.w3.org/2000/svg"
   xmlns="http://www.w3.org/2000/svg"
   xmlns:xlink="http://www.w3.org/1999/xlink"
   xmlns:sodipodi="http://sodipodi.sourceforge.net/DTD/sodipodi-0.dtd"
   xmlns:inkscape="http://www.inkscape.org/namespaces/inkscape"
   version="1.1"
   id="Capa_1"
   x="0px"
   y="0px"
   viewBox="0 0 554.748 554.748"
   style="enable-background:new 0 0 554.748 554.748;"
   xml:space="preserve"
   sodipodi:docname="shopping-store-cart.svg"
   inkscape:version="0.92.4 (5da689c313, 2019-01-14)"><metadata
   id="metadata43"><rdf:RDF><cc:Work
       rdf:about=""><dc:format>image/svg+xml</dc:format><dc:type
         rdf:resource="http://purl.org/dc/dcmitype/StillImage" /></cc:Work></rdf:RDF></metadata><defs
   id="defs41"><linearGradient
     inkscape:collect="always"
     id="linearGradient840"><stop
       style="stop-color:#01549f;stop-opacity:1;"
       offset="0"
       id="stop836" /><stop
       style="stop-color:#01549f;stop-opacity:0;"
       offset="1"
       id="stop838" /></linearGradient><radialGradient
     inkscape:collect="always"
     xlink:href="#linearGradient840"
     id="radialGradient844"
     cx="277.37393"
     cy="277.37515"
     fx="277.37393"
     fy="277.37515"
     r="277.87164"
     gradientTransform="matrix(1,0,0,0.9608028,0,10.872328)"
     gradientUnits="userSpaceOnUse" /></defs><sodipodi:namedview
   pagecolor="#ffffff"
   bordercolor="#666666"
   borderopacity="1"
   objecttolerance="10"
   gridtolerance="10"
   guidetolerance="10"
   inkscape:pageopacity="0"
   inkscape:pageshadow="2"
   inkscape:window-width="1920"
   inkscape:window-height="1137"
   id="namedview39"
   showgrid="false"
   inkscape:zoom="0.4254184"
   inkscape:cx="-109.30416"
   inkscape:cy="277.37399"
   inkscape:window-x="-8"
   inkscape:window-y="-8"
   inkscape:window-maximized="1"
   inkscape:current-layer="Capa_1" />
<g
   id="g6"
   transform="matrix(-1,0,0,1,554.7471,0)"
   style="fill-opacity:0.94117647;fill:#01549f">
	<g
   id="g4"
   style="fill-opacity:0.94117647;fill:#01549f">
		<path
   style="fill:#01549f;fill-opacity:0.94117647;stroke:#014ea0;stroke-opacity:0"
   d="m 548.873,164.412 c 4.896,6.12 6.73,13.464 5.508,22.032 l -23.256,133.417 c -0.816,6.938 -3.979,12.648 -9.486,17.136 -5.508,4.488 -11.729,6.732 -18.666,6.732 H 163.925 l -6.732,37.944 H 480.33 c 7.752,0 14.48,2.754 20.195,8.262 5.713,5.508 8.566,12.342 8.566,20.502 0,8.16 -2.854,14.994 -8.566,20.502 -5.715,5.508 -12.443,8.262 -20.195,8.262 H 122.921 c -8.568,0 -15.912,-3.468 -22.032,-10.401 -5.712,-6.938 -7.956,-14.895 -6.732,-23.868 L 109.457,321.7 86.201,87.914 20.105,67.106 C 12.353,64.658 6.743,59.965 3.275,53.03 -0.193,46.093 -0.907,38.75 1.133,30.998 3.581,23.246 8.375,17.636 15.515,14.168 22.655,10.7 29.897,9.986 37.241,12.026 l 84.456,26.928 c 5.304,1.632 9.69,4.692 13.158,9.18 3.468,4.488 5.61,9.589 6.426,15.301 l 4.896,46.512 383.112,42.84 c 8.568,1.221 15.096,5.097 19.584,11.625 z M 166.374,455.113 c 12.24,0 22.644,4.284 31.212,12.854 8.568,8.565 12.852,18.972 12.852,31.212 0,12.237 -4.284,22.746 -12.852,31.518 -8.568,8.772 -18.972,13.158 -31.212,13.158 -12.24,0 -22.644,-4.386 -31.212,-13.158 -8.568,-8.771 -12.852,-19.278 -12.852,-31.518 0,-12.24 4.284,-22.646 12.852,-31.212 8.567,-8.57 18.971,-12.854 31.212,-12.854 z m 261.323,0 c 12.238,0 22.645,4.284 31.213,12.854 8.564,8.565 12.852,18.972 12.852,31.212 0,12.237 -4.285,22.746 -12.852,31.518 -8.568,8.772 -18.975,13.158 -31.213,13.158 -12.24,0 -22.646,-4.386 -31.211,-13.158 -8.568,-8.771 -12.855,-19.278 -12.855,-31.518 0,-12.24 4.285,-22.646 12.855,-31.212 8.567,-8.57 18.971,-12.854 31.211,-12.854 z"
   id="path2"
   inkscape:connector-curvature="0" />
	</g>
</g>
<g
   id="g8">
</g>
<g
   id="g10">
</g>
<g
   id="g12">
</g>
<g
   id="g14">
</g>
<g
   id="g16">
</g>
<g
   id="g18">
</g>
<g
   id="g20">
</g>
<g
   id="g22">
</g>
<g
   id="g24">
</g>
<g
   id="g26">
</g>
<g
   id="g28">
</g>
<g
   id="g30">
</g>
<g
   id="g32">
</g>
<g
   id="g34">
</g>
<g
   id="g36">
</g>
<path
   style="fill:none;stroke-width:2.35062695"
   d="m 57.92933,431.91604 c -11.690507,-9.88237 -14.082197,-20.04248 -7.822992,-33.23279 7.728911,-16.28747 -1.195854,-15.53104 183.244362,-15.53104 157.05573,0 166.04112,-0.22401 164.97413,-4.1136 -0.62066,-2.26248 -1.78592,-8.34472 -2.58943,-13.5161 -0.80354,-5.17138 -2.03771,-12.31141 -2.74264,-15.86674 l -1.2817,-6.46422 H 220.22655 c -184.709565,0 -183.034245,0.10648 -190.979738,-12.14444 -3.780716,-5.82942 -27.3663104,-135.99394 -27.3663104,-151.0296 0,-11.18273 11.5760234,-23.82735 23.6734734,-25.85881 4.432996,-0.74441 89.509215,-10.35635 189.058275,-21.35986 99.54906,-11.00352 184.22833,-20.53577 188.17616,-21.18279 l 7.1779,-1.17639 2.50565,-25.360756 c 2.68086,-27.134252 6.49981,-37.71025 15.25916,-42.257942 8.50272,-4.414452 93.68881,-31.068928 99.26282,-31.05904 14.23289,0.02525 29.17281,18.948733 26.07937,33.03311 -3.17154,14.439928 -8.69469,17.932161 -48.30781,30.544603 -20.60346,6.559949 -37.47266,12.654453 -37.4871,13.543343 -0.0141,0.888889 -5.24352,53.722032 -11.62018,117.406982 l -11.59393,115.79082 8.16093,42.87652 c 4.64437,24.40104 7.59434,46.091 6.84609,50.33647 -0.7913,4.4896 -4.59426,10.33937 -9.55098,14.69142 l -8.23615,7.23144 -188.55604,-0.0118 -188.556021,-0.0118 -6.242789,-5.27726 z"
   id="path3748"
   inkscape:connector-curvature="0" /><path
   style="fill:none;stroke-width:2.35062695"
   d="m 57.92933,431.91604 c -11.690507,-9.88237 -14.082197,-20.04248 -7.822992,-33.23279 7.728911,-16.28747 -1.195854,-15.53104 183.244362,-15.53104 157.05573,0 166.04112,-0.22401 164.97413,-4.1136 -0.62066,-2.26248 -1.78592,-8.34472 -2.58943,-13.5161 -0.80354,-5.17138 -2.03771,-12.31141 -2.74264,-15.86674 l -1.2817,-6.46422 H 220.22655 c -184.709565,0 -183.034245,0.10648 -190.979738,-12.14444 -3.780716,-5.82942 -27.3663104,-135.99394 -27.3663104,-151.0296 0,-11.18273 11.5760234,-23.82735 23.6734734,-25.85881 4.432996,-0.74441 89.509215,-10.35635 189.058275,-21.35986 99.54906,-11.00352 184.22833,-20.53577 188.17616,-21.18279 l 7.1779,-1.17639 2.50565,-25.360756 c 2.68086,-27.134252 6.49981,-37.71025 15.25916,-42.257942 8.50272,-4.414452 93.68881,-31.068928 99.26282,-31.05904 14.23289,0.02525 29.17281,18.948733 26.07937,33.03311 -3.17154,14.439928 -8.69469,17.932161 -48.30781,30.544603 -20.60346,6.559949 -37.47266,12.654453 -37.4871,13.543343 -0.0141,0.888889 -5.24352,53.722032 -11.62018,117.406982 l -11.59393,115.79082 8.16093,42.87652 c 4.64437,24.40104 7.59434,46.091 6.84609,50.33647 -0.7913,4.4896 -4.59426,10.33937 -9.55098,14.69142 l -8.23615,7.23144 -188.55604,-0.0118 -188.556021,-0.0118 -6.242789,-5.27726 z"
   id="path3750"
   inkscape:connector-curvature="0" /><path
   style="fill:none;stroke-width:2.35062695"
   d="m 57.92933,431.91604 c -11.690507,-9.88237 -14.082197,-20.04248 -7.822992,-33.23279 7.728911,-16.28747 -1.195854,-15.53104 183.244362,-15.53104 157.05573,0 166.04112,-0.22401 164.97413,-4.1136 -0.62066,-2.26248 -1.78592,-8.34472 -2.58943,-13.5161 -0.80354,-5.17138 -2.03771,-12.31141 -2.74264,-15.86674 l -1.2817,-6.46422 H 220.22655 c -184.709565,0 -183.034245,0.10648 -190.979738,-12.14444 -3.780716,-5.82942 -27.3663104,-135.99394 -27.3663104,-151.0296 0,-11.18273 11.5760234,-23.82735 23.6734734,-25.85881 4.432996,-0.74441 89.509215,-10.35635 189.058275,-21.35986 99.54906,-11.00352 184.22833,-20.53577 188.17616,-21.18279 l 7.1779,-1.17639 2.50565,-25.360756 c 2.68086,-27.134252 6.49981,-37.71025 15.25916,-42.257942 8.50272,-4.414452 93.68881,-31.068928 99.26282,-31.05904 14.23289,0.02525 29.17281,18.948733 26.07937,33.03311 -3.17154,14.439928 -8.69469,17.932161 -48.30781,30.544603 -20.60346,6.559949 -37.47266,12.654453 -37.4871,13.543343 -0.0141,0.888889 -5.24352,53.722032 -11.62018,117.406982 l -11.59393,115.79082 8.16093,42.87652 c 4.64437,24.40104 7.59434,46.091 6.84609,50.33647 -0.7913,4.4896 -4.59426,10.33937 -9.55098,14.69142 l -8.23615,7.23144 -188.55604,-0.0118 -188.556021,-0.0118 -6.242789,-5.27726 z"
   id="path3752"
   inkscape:connector-curvature="0" /></svg>