<?xml version="1.0" encoding="UTF-8" standalone="no"?>
<!-- Created with Inkscape (http://www.inkscape.org/) -->

<svg
   xmlns:dc="http://purl.org/dc/elements/1.1/"
   xmlns:cc="http://creativecommons.org/ns#"
   xmlns:rdf="http://www.w3.org/1999/02/22-rdf-syntax-ns#"
   xmlns:svg="http://www.w3.org/2000/svg"
   xmlns="http://www.w3.org/2000/svg"
   xmlns:sodipodi="http://sodipodi.sourceforge.net/DTD/sodipodi-0.dtd"
   xmlns:inkscape="http://www.inkscape.org/namespaces/inkscape"
   width="49.188034mm"
   height="49.557896mm"
   viewBox="0 0 49.188034 49.557896"
   version="1.1"
   id="svg845"
   inkscape:version="0.92.4 (5da689c313, 2019-01-14)"
   sodipodi:docname="summer.svg">
  <defs
     id="defs839" />
  <sodipodi:namedview
     id="base"
     pagecolor="#ffffff"
     bordercolor="#666666"
     borderopacity="1.0"
     inkscape:pageopacity="0.0"
     inkscape:pageshadow="2"
     inkscape:zoom="0.91547473"
     inkscape:cx="326.90533"
     inkscape:cy="-118.32085"
     inkscape:document-units="mm"
     inkscape:current-layer="layer1"
     showgrid="false"
     inkscape:window-width="1920"
     inkscape:window-height="1137"
     inkscape:window-x="-8"
     inkscape:window-y="-8"
     inkscape:window-maximized="1" />
  <metadata
     id="metadata842">
    <rdf:RDF>
      <cc:Work
         rdf:about="">
        <dc:format>image/svg+xml</dc:format>
        <dc:type
           rdf:resource="http://purl.org/dc/dcmitype/StillImage" />
        <dc:title />
      </cc:Work>
    </rdf:RDF>
  </metadata>
  <g
     inkscape:label="Layer 1"
     inkscape:groupmode="layer"
     id="layer1"
     transform="translate(-78.731165,-96.695771)">
    <g
       transform="translate(9.4235118,23.627759)"
       id="layer1-7"
       style="fill:#ffcc00">
      <g
         style="fill:#ffcc00"
         transform="translate(-13.607143,11.339285)"
         id="g3772">
        <path
           inkscape:connector-curvature="0"
           id="path3788"
           d="m 106.58191,108.03942 c -0.96262,-1.82932 -1.74984,-3.35353 -1.74939,-3.38712 4.5e-4,-0.0336 1.47232,-0.0624 3.27081,-0.064 l 3.26999,-0.003 -0.46205,1.06131 c -1.32363,3.04028 -2.4489,5.56821 -2.51015,5.63905 -0.038,0.0439 -0.8566,-1.41689 -1.81921,-3.24621 z m -10.657445,-2.15459 c 0.09529,-1.43909 0.173863,-3.17065 0.174616,-3.84791 l 0.0014,-1.23139 2.128096,1.27902 c 1.170452,0.70347 2.480143,1.35635 2.910413,1.45085 0.43028,0.0945 0.78232,0.2574 0.78232,0.36199 0,0.1645 -4.693559,3.71153 -5.780812,4.36869 -0.336611,0.20345 -0.365821,-0.11857 -0.216002,-2.38125 z m 21.376195,-0.28863 -3.00917,-1.99801 1.81854,-0.95871 c 1.0002,-0.52729 2.24936,-1.28831 2.77592,-1.69114 l 0.95737,-0.73243 0.31138,2.98141 c 0.17127,1.63977 0.37499,3.30883 0.45272,3.70901 0.0777,0.40018 0.0426,0.71867 -0.0781,0.70774 -0.12071,-0.0109 -1.57359,-0.91896 -3.22863,-2.01787 z M 86.589762,99.497997 c 0.028,-0.388239 3.57625,-5.71682 3.872537,-5.815581 0.165869,-0.05529 0.383508,0.157607 0.483643,0.473104 0.100134,0.315494 0.821481,1.512673 1.602992,2.660396 0.78151,1.147723 1.334764,2.087803 1.229451,2.089068 -0.105312,0.0013 -1.679758,0.178824 -3.498768,0.394575 -3.882015,0.460444 -3.708077,0.451091 -3.689855,0.198438 z m 17.021008,-0.344183 c -2.40108,-0.761225 -4.017906,-1.751497 -5.790528,-3.546573 -5.429152,-5.49792 -5.447947,-14.16431 -0.04241,-19.553466 6.402748,-6.383339 16.737628,-5.270386 21.661578,2.332715 1.95635,3.020825 2.66531,7.204854 1.81753,10.726611 -1.1497,4.776018 -5.22938,8.947613 -9.95394,10.178206 -2.16179,0.563073 -5.68089,0.500171 -7.69223,-0.137493 z m 21.85843,-1.054963 c -1.81901,-0.09942 -3.34764,-0.197355 -3.39696,-0.217633 -0.0493,-0.02027 0.21146,-0.394726 0.57949,-0.832112 0.36804,-0.437385 1.06323,-1.621308 1.54487,-2.630942 0.48165,-1.009634 0.93526,-1.839159 1.00802,-1.843389 0.0728,-0.0042 0.99549,1.174922 2.05052,2.620335 1.77325,2.429404 2.22438,3.250843 1.71979,3.131458 -0.10914,-0.02582 -1.68672,-0.128294 -3.50573,-0.227717 z M 85.926115,88.812979 c -1.594061,-0.718976 -2.940001,-1.348936 -2.990979,-1.399913 -0.05098,-0.05098 1.292815,-0.830467 2.986205,-1.732198 1.693391,-0.901731 3.11431,-1.599697 3.157599,-1.551035 0.04329,0.04866 0.131693,1.42793 0.196453,3.065039 0.08023,2.028042 0.02713,2.9684 -0.166619,2.950948 -0.156401,-0.01408 -1.588597,-0.613865 -3.182659,-1.332841 z M 126.13066,85.93745 c 0,-1.600426 0.0157,-2.909843 0.035,-2.909815 0.30515,4.49e-4 5.71931,2.586328 5.74705,2.744889 0.0404,0.230825 -5.05261,3.066215 -5.51743,3.071681 -0.16054,0.0019 -0.26458,-1.141158 -0.26458,-2.906755 z M 87.67954,77.709228 c -1.06285,-1.469942 -1.875269,-2.729809 -1.805375,-2.799702 0.06989,-0.06989 1.626926,-0.04163 3.460071,0.0628 l 3.332993,0.189882 -0.551335,0.823883 c -0.303234,0.453136 -0.917705,1.627555 -1.365492,2.609821 -0.447787,0.982266 -0.887114,1.785937 -0.976282,1.785937 -0.08917,0 -1.031729,-1.20268 -2.09458,-2.672623 z m 36.90241,0.754394 c -0.083,-0.327422 -0.6912,-1.416637 -1.3516,-2.420479 -0.6604,-1.003842 -1.20073,-1.84941 -1.20073,-1.879039 0,-0.103341 6.37916,-0.720361 6.46299,-0.625129 0.11874,0.134886 -3.38269,5.517524 -3.59004,5.518863 -0.0934,6.09e-4 -0.23765,-0.266794 -0.32062,-0.594216 z M 94.786868,68.990526 c -0.183496,-1.754082 -0.283682,-3.239188 -0.222635,-3.300235 0.06105,-0.06105 1.326981,0.672032 2.813188,1.629064 l 2.702199,1.740058 -1.526566,0.918563 c -0.83961,0.505209 -1.905571,1.207289 -2.368805,1.560177 -0.463233,0.352889 -0.892082,0.641615 -0.952997,0.641615 -0.06091,0 -0.260888,-1.435159 -0.444384,-3.189242 z m 23.016362,1.615831 c -0.35998,-0.276401 -1.34225,-0.831254 -2.18281,-1.233008 -0.84057,-0.401754 -1.52429,-0.797866 -1.51938,-0.88025 0.0115,-0.192166 5.03103,-3.807523 5.11338,-3.682915 0.1919,0.290404 -0.27187,6.150403 -0.4921,6.217775 -0.14552,0.04452 -0.55911,-0.145202 -0.91909,-0.421602 z m -13.76554,-2.820091 c 0.002,-0.171474 2.45327,-5.573016 2.59133,-5.709222 0.10288,-0.101494 0.8381,1.052416 1.63381,2.564245 0.79572,1.511828 1.39104,2.803066 1.32292,2.869416 -0.10082,0.09821 -5.54892,0.368807 -5.54806,0.275561 z"
           style="fill:#ffcc00;fill-opacity:1;stroke-width:0.26458332" />
        <path
           inkscape:connector-curvature="0"
           id="path3786"
           d="m 106.61231,108.02789 c -0.83381,-1.67509 -1.51548,-3.1336 -1.51481,-3.24114 6.6e-4,-0.10754 1.36989,-0.19566 3.04271,-0.19582 1.67282,-1.6e-4 3.04149,0.0874 3.04149,0.19455 0,0.35528 -2.72948,6.28804 -2.89294,6.28804 -0.0882,0 -0.84263,-1.37053 -1.67645,-3.04563 z m -10.616471,-3.19861 c 0.09756,-2.0227 0.216011,-3.72272 0.263226,-3.77782 0.04722,-0.0551 0.656308,0.26588 1.353536,0.71329 0.697228,0.44741 1.968158,1.12326 2.824289,1.50188 l 1.5566,0.6884 -2.748082,2.00742 c -1.511446,1.10409 -2.900828,2.12826 -3.087516,2.27595 -0.2745,0.21716 -0.3055,-0.435 -0.162053,-3.40912 z m 21.184341,0.63178 -2.86506,-1.87531 1.80716,-0.95247 c 0.99394,-0.52386 2.20077,-1.23335 2.68186,-1.57665 0.48108,-0.34329 0.91467,-0.58142 0.96352,-0.52916 0.0489,0.0523 0.25669,1.61305 0.46186,3.46844 0.2542,2.29885 0.28427,3.36819 0.0944,3.35695 -0.15326,-0.009 -1.56794,-0.86038 -3.14372,-1.8918 z M 86.57545,99.560137 c 0,-0.264006 3.758644,-5.949032 3.928737,-5.942293 0.09477,0.0038 0.390772,0.480637 0.657788,1.059741 0.267016,0.579102 1.010911,1.766655 1.653099,2.639007 0.642188,0.87235 1.019033,1.587127 0.837433,1.588392 -0.1816,0.0013 -1.818463,0.178824 -3.637474,0.394575 -1.81901,0.215752 -3.337057,0.393312 -3.373437,0.394576 -0.03638,0.0013 -0.06615,-0.05903 -0.06615,-0.133998 z m 17.49222,-0.28189 c -4.468007,-1.201597 -8.157735,-4.75942 -9.71884,-9.371396 -0.363498,-1.073883 -0.487831,-2.183191 -0.474477,-4.233333 0.01534,-2.35514 0.125887,-3.055177 0.726054,-4.597775 2.206192,-5.670533 7.247153,-9.160558 13.231433,-9.160558 5.82552,0 11.41594,4.139525 13.14335,9.732223 0.71524,2.315693 0.71524,6.001111 0,8.316802 -1.36874,4.431459 -5.25918,8.131776 -9.82814,9.347848 -1.80184,0.479579 -5.23131,0.463199 -7.07938,-0.03381 z m 18.82184,-1.356037 c -0.74021,-0.142571 -0.73888,-0.186513 0.037,-1.219991 0.34776,-0.463232 1.00618,-1.590072 1.46315,-2.504088 l 0.83087,-1.661845 1.97643,2.655686 c 1.08703,1.460627 1.97643,2.714472 1.97643,2.786324 0,0.15634 -5.43272,0.10785 -6.28386,-0.05609 z M 86.046283,88.815083 c -1.673489,-0.735198 -3.082365,-1.375675 -3.130835,-1.423279 -0.06705,-0.06585 5.055081,-2.808824 6.077754,-3.254726 0.102468,-0.04468 0.186305,0.856711 0.186305,2.003085 0,1.146374 0.08218,2.522382 0.182626,3.057793 0.100444,0.535413 0.08008,0.969063 -0.04526,0.963665 -0.125336,-0.0054 -1.597102,-0.611338 -3.270592,-1.346538 z m 40.084377,-2.839711 c 0,-2.776831 0.0198,-2.877051 0.52916,-2.679287 1.46892,0.570305 5.05604,2.1989 5.25915,2.387715 0.18702,0.173852 -4.53696,2.827144 -5.52373,3.102483 -0.16472,0.04596 -0.26458,-1.014926 -0.26458,-2.810911 z M 87.684956,77.695468 c -1.063262,-1.464942 -1.886719,-2.710015 -1.829905,-2.766829 0.167377,-0.167376 6.565458,0.228689 6.479297,0.401092 -0.04324,0.08653 -0.612546,1.257509 -1.265116,2.602173 -0.65257,1.344665 -1.246022,2.440851 -1.318782,2.43597 -0.07276,-0.0049 -1.002233,-1.207464 -2.065494,-2.672406 z m 36.887134,0.723086 c -0.0884,-0.352208 -0.6902,-1.42997 -1.33734,-2.395024 -0.73271,-1.092652 -1.05722,-1.792742 -0.86015,-1.855623 0.64485,-0.205756 5.79728,-0.696573 5.92905,-0.564798 0.1557,0.155702 -3.14106,5.436978 -3.40108,5.448381 -0.0934,0.0041 -0.24208,-0.280726 -0.33048,-0.632936 z M 94.807252,68.978483 c -0.181459,-1.760707 -0.291115,-3.240097 -0.24368,-3.287531 0.04744,-0.04743 1.307773,0.69882 2.800751,1.658344 l 2.714507,1.744589 -1.393878,0.760403 c -0.766632,0.418221 -1.83338,1.112545 -2.37055,1.542941 -0.53717,0.430397 -1.021797,0.782539 -1.076949,0.782539 -0.05515,0 -0.248742,-1.440578 -0.430201,-3.201285 z m 23.323798,1.738996 c -0.32427,-0.227128 -1.38781,-0.807923 -2.36341,-1.290655 l -1.77382,-0.877693 2.49655,-1.855325 2.49654,-1.855326 0.076,2.339049 c 0.0418,1.286476 -0.0181,2.702168 -0.13314,3.14598 -0.20054,0.77391 -0.23322,0.790032 -0.79868,0.39397 z M 105.00354,65.62977 c 0.51373,-1.126928 1.11188,-2.465679 1.32922,-2.975002 l 0.39518,-0.926041 1.41957,2.778125 c 0.78076,1.527968 1.42567,2.853534 1.43313,2.945701 0.007,0.09217 -1.2295,0.180762 -2.7488,0.196877 l -2.76236,0.0293 z"
           style="fill:#ffcc00;fill-opacity:1;stroke-width:0.26458332" />
        <path
           inkscape:connector-curvature="0"
           id="path3784"
           d="m 106.59863,108.0004 c -0.84135,-1.69022 -1.49379,-3.1062 -1.44989,-3.14663 0.15159,-0.13959 6.03297,-0.27057 6.03711,-0.13445 0.009,0.31252 -2.74026,6.3542 -2.892,6.3542 -0.091,0 -0.85388,-1.38291 -1.69522,-3.07312 z m -10.575269,-3.34303 c 0.08193,-1.92815 0.185464,-3.54848 0.230082,-3.60074 0.04462,-0.0523 0.435726,0.15749 0.869129,0.4661 0.433403,0.30861 1.691562,0.99021 2.795908,1.51466 l 2.0079,0.95355 -2.841327,2.08608 c -1.562732,1.14734 -2.924427,2.08608 -3.02599,2.08608 -0.101563,0 -0.117629,-1.57758 -0.0357,-3.50573 z m 21.176969,0.80194 -2.84492,-1.86371 1.67351,-0.84199 c 0.92043,-0.4631 2.11459,-1.17842 2.65368,-1.58961 0.53909,-0.41118 1.01972,-0.70124 1.06806,-0.64457 0.11164,0.1309 0.69146,5.32813 0.69146,6.19795 0,0.35858 -0.0893,0.64155 -0.19844,0.6288 -0.10914,-0.0127 -1.47865,-0.86183 -3.04335,-1.88687 z M 86.613813,99.499886 c 0.05166,-0.127021 0.921904,-1.521836 1.933873,-3.099583 1.581618,-2.465885 1.878795,-2.801213 2.116666,-2.388407 0.152198,0.264128 0.90245,1.432269 1.667228,2.595872 0.764777,1.163603 1.36009,2.14498 1.322916,2.180833 -0.03717,0.03586 -1.258213,0.197292 -2.713421,0.358752 -1.455208,0.161456 -3.045289,0.358793 -3.533512,0.438523 -0.488222,0.07973 -0.84541,0.04103 -0.79375,-0.08599 z m 17.291847,-0.29732 c -6.769159,-1.945129 -11.085672,-8.745953 -9.923667,-15.635101 1.102933,-6.538929 7.094677,-11.664332 13.617277,-11.648369 3.76282,0.0092 7.20142,1.471568 9.93243,4.224046 2.7313,2.752768 3.96527,5.76439 3.95914,9.662668 -0.004,2.599782 -0.30761,3.976105 -1.36958,6.21035 -1.02233,2.150848 -3.94101,5.130723 -6.02914,6.155563 -3.1389,1.540547 -7.03911,1.935237 -10.18646,1.030843 z m 19.2622,-1.326899 -0.84612,-0.163607 1.16149,-1.839 c 0.63882,-1.011452 1.2302,-2.11278 1.31419,-2.447396 0.084,-0.334618 0.25823,-0.608396 0.38722,-0.608396 0.19183,0 3.07514,3.746738 3.81769,4.960937 0.157,0.256707 -0.3786,0.322935 -2.39304,0.2959 -1.42741,-0.01916 -2.97606,-0.108453 -3.44143,-0.198438 z M 86.443158,88.971134 c -1.455208,-0.64534 -2.883958,-1.277321 -3.175,-1.404398 -0.440832,-0.192482 0.004,-0.498696 2.664999,-1.834374 l 3.194165,-1.603321 -0.0061,2.029009 c -0.0034,1.115956 0.08271,2.475494 0.191262,3.021197 0.10855,0.545703 0.102673,0.986123 -0.01306,0.97871 -0.115736,-0.0074 -1.401053,-0.541483 -2.856262,-1.186823 z M 126.13066,86.06975 c 0,-1.527862 0.0954,-2.77783 0.21193,-2.777707 0.32104,3.44e-4 5.31055,2.137456 5.57653,2.38855 0.17034,0.160815 -5.26214,3.170208 -5.71791,3.167507 -0.0388,-2.3e-4 -0.0705,-1.250487 -0.0705,-2.77835 z M 87.959643,77.954613 c -1.000803,-1.357154 -1.903767,-2.610686 -2.006586,-2.785627 -0.143396,-0.24398 0.569887,-0.281707 3.061995,-0.161955 1.786917,0.08587 3.274014,0.174699 3.30466,0.197406 0.03065,0.02271 -0.528412,1.205986 -1.242353,2.629508 l -1.298074,2.588221 z m 36.304787,-0.263041 c -0.38858,-0.775919 -0.99084,-1.789771 -1.33837,-2.253004 -0.34752,-0.463234 -0.63186,-0.94716 -0.63186,-1.075392 0,-0.230771 5.81885,-0.950664 6.02422,-0.7453 0.0586,0.05862 -0.67058,1.316609 -1.62045,2.795523 l -1.72703,2.688934 z M 95.188221,71.85259 C 95.130694,71.668736 95.01018,70.744404 94.920413,69.798518 94.830646,68.852633 94.685988,67.506265 94.59895,66.80659 l -0.15825,-1.272137 2.67102,1.669012 c 1.469062,0.917956 2.675943,1.755889 2.681959,1.862072 0.006,0.106183 -0.447373,0.426873 -1.00753,0.712643 -0.560158,0.285771 -1.575313,0.944633 -2.2559,1.464137 -0.818352,0.624662 -1.272855,0.831343 -1.342028,0.610273 z m 22.519089,-1.413436 c -0.55825,-0.379901 -1.61894,-0.957261 -2.35707,-1.283021 l -1.34207,-0.592291 2.48937,-1.847719 2.48937,-1.847719 0.0768,1.908967 c 0.0422,1.049931 -0.0173,2.458765 -0.13229,3.13074 l -0.20909,1.221774 z M 104.30253,67.43866 c 0,-0.117031 0.34401,-0.973392 0.76446,-1.903025 0.42044,-0.929633 0.96616,-2.166492 1.2127,-2.748575 l 0.44825,-1.058333 1.41957,2.778125 c 0.78076,1.527968 1.42557,2.837656 1.43291,2.910416 0.007,0.07276 -1.17718,0.155216 -2.63227,0.183234 -1.45509,0.02802 -2.64562,-0.04481 -2.64562,-0.161842 z"
           style="fill:#ffcc00;fill-opacity:1;stroke-width:0.26458332" />
        <path
           inkscape:connector-curvature="0"
           id="path3782"
           d="m 107.94164,110.47754 c -0.59191,-0.90337 -2.89201,-5.53133 -2.79572,-5.62519 0.0455,-0.0443 1.42085,-0.1212 3.05641,-0.17085 2.78349,-0.0845 2.9639,-0.0593 2.81964,0.39419 -0.16705,0.52509 -2.4906,5.81788 -2.60766,5.93994 -0.0392,0.0409 -0.25194,-0.20122 -0.47267,-0.53809 z m -11.887495,-5.82017 c 0.058,-1.92815 0.136835,-3.54049 0.175182,-3.58298 0.03835,-0.0425 0.828709,0.3914 1.75636,0.96419 0.927651,0.5728 2.133123,1.19702 2.678823,1.38718 0.54571,0.19015 0.99219,0.43321 0.99219,0.54014 0,0.18006 -5.360045,4.1972 -5.600299,4.1972 -0.05924,0 -0.06026,-1.57758 -0.0022,-3.50573 z m 21.401975,0.92619 c -1.54512,-0.98235 -2.81506,-1.86094 -2.82208,-1.95242 -0.007,-0.0915 0.3385,-0.31184 0.76782,-0.48966 0.42931,-0.17783 1.57938,-0.84799 2.55571,-1.48924 0.97632,-0.64125 1.79857,-1.13528 1.82722,-1.09784 0.12959,0.16934 0.70389,6.592 0.59885,6.69704 -0.065,0.065 -1.38239,-0.68554 -2.92752,-1.66788 z M 87.130989,98.716624 c 0.713347,-1.167114 3.148489,-4.929079 3.26795,-5.048538 0.04463,-0.04463 0.468681,0.608875 0.942326,1.452242 0.473645,0.84337 1.202444,1.967251 1.619554,2.497513 0.417109,0.530265 0.758381,1.020855 0.758381,1.0902 0,0.06935 -1.339453,0.264795 -2.976563,0.434335 -1.637109,0.16954 -3.257606,0.369128 -3.601103,0.443531 l -0.624541,0.135282 z m 17.303831,0.60302 C 97.501177,97.580691 92.901637,90.75995 93.965214,83.794071 c 1.139858,-7.46548 8.233956,-12.75596 15.654436,-11.674414 6.88669,1.003745 11.88866,6.818584 11.87766,13.807887 -0.006,3.740002 -1.28853,6.833145 -3.96561,9.563196 -3.44916,3.517415 -8.47746,4.98745 -13.09688,3.828904 z m 18.99944,-1.448885 -1.1089,-0.158699 1.0482,-1.5875 c 0.57651,-0.873125 1.18872,-1.974454 1.36048,-2.447396 0.17177,-0.472943 0.39356,-0.859896 0.49288,-0.859896 0.15476,0 3.14593,3.931536 3.76116,4.943604 0.16926,0.27844 -0.25414,0.340114 -2.11667,0.308325 -1.28054,-0.02186 -2.82726,-0.111154 -3.43715,-0.198438 z M 86.078248,88.783245 c -2.691653,-1.20428 -2.960029,-1.38413 -2.532228,-1.696946 0.653822,-0.478086 5.044102,-2.735657 5.320416,-2.735866 0.122406,-9.2e-5 0.222556,0.744049 0.222556,1.653646 0,0.909598 0.08702,2.219361 0.193376,2.910585 0.106356,0.691224 0.106356,1.247513 0,1.236199 -0.106357,-0.01132 -1.548211,-0.626742 -3.20412,-1.367618 z m 40.135622,-2.711267 c -0.0458,-1.529455 0.0169,-2.780575 0.13923,-2.780268 0.28267,7.14e-4 5.25983,2.148319 5.55228,2.395772 0.12016,0.10167 -1.09255,0.85546 -2.69491,1.675088 l -2.91339,1.490234 z M 87.975514,77.949124 c -1.002506,-1.354136 -1.902638,-2.593712 -2.000295,-2.754616 -0.127488,-0.210054 0.734178,-0.256601 3.055607,-0.165065 1.778241,0.07012 3.252212,0.142234 3.275491,0.16026 0.02328,0.01803 -0.531514,1.200233 -1.232871,2.627129 l -1.275196,2.594355 z m 36.284216,-0.254891 c -0.27285,-0.605065 -0.83714,-1.570942 -1.254,-2.146392 -0.41685,-0.575449 -0.65818,-1.134849 -0.53628,-1.24311 0.22572,-0.200474 5.69162,-0.844208 5.84718,-0.688639 0.13242,0.132414 -3.14862,5.178259 -3.36714,5.178259 -0.10652,0 -0.41691,-0.495053 -0.68976,-1.100118 z M 95.184466,71.584456 c -0.103027,-0.322587 -0.671516,-5.171518 -0.671516,-5.727692 0,-0.264344 4.215123,2.286552 4.99492,3.022811 0.305243,0.2882 0.175816,0.440078 -0.79375,0.931438 -0.637154,0.3229 -1.592314,0.928433 -2.122578,1.345631 -1.079244,0.84912 -1.255414,0.902683 -1.407076,0.427812 z M 118.4362,70.864094 c -0.15737,-0.158648 -1.20264,-0.748883 -2.32283,-1.311633 l -2.03671,-1.023182 2.37967,-1.746631 c 1.30882,-0.960646 2.44339,-1.74663 2.52127,-1.74663 0.19139,0 0.13745,3.265468 -0.08,4.844201 -0.12591,0.914106 -0.25581,1.191113 -0.46138,0.983875 z m -14.01072,-3.669432 c 0.59311,-1.616566 2.15642,-5.058036 2.29991,-5.06302 0.14576,-0.0051 2.87179,5.06147 2.86733,5.329154 -7.9e-4,0.04882 -1.2,0.107654 -2.66486,0.130741 -2.37911,0.0375 -2.64621,-0.0049 -2.50238,-0.396875 z"
           style="fill:#ffcc00;fill-opacity:1;stroke-width:0.26458332" />
        <path
           inkscape:connector-curvature="0"
           id="path3780"
           d="m 106.71071,108.08128 c -0.88794,-1.66461 -1.61443,-3.09389 -1.61443,-3.17615 0,-0.0823 1.36946,-0.18655 3.04323,-0.23174 1.67378,-0.0452 3.043,-0.0402 3.04271,0.0111 -5.3e-4,0.11314 -2.6849,6.22206 -2.78582,6.34003 -0.0392,0.0458 -0.79776,-1.27864 -1.68569,-2.94326 z m -10.669302,-2.89442 c 0.111012,-4.51155 0.01305,-4.3567 1.96005,-3.0983 0.896634,0.57953 2.085872,1.19019 2.642742,1.35703 0.55688,0.16685 1.0125,0.39313 1.0125,0.50286 0,0.17459 -5.365996,4.21413 -5.599044,4.21498 -0.04922,1.8e-4 -0.05653,-1.33928 -0.01625,-2.97657 z m 21.362862,0.29725 -2.88309,-1.86359 1.64904,-0.88107 c 0.90698,-0.48459 2.06168,-1.19581 2.56602,-1.58048 0.65583,-0.50023 0.94806,-0.60087 1.02612,-0.35337 0.17696,0.56104 0.73853,6.32859 0.62706,6.44006 -0.0561,0.0561 -1.39944,-0.73657 -2.98515,-1.76155 z m -12.0434,-5.964901 c -0.36381,-0.05784 -1.37584,-0.355698 -2.24896,-0.661908 -5.555944,-1.948506 -9.21284,-7.123147 -9.223434,-13.051491 -0.0123,-6.884334 5.050735,-12.67677 11.960804,-13.683923 4.16281,-0.606734 8.52663,0.856789 11.52629,3.865641 5.51066,5.52756 5.52371,14.119877 0.0298,19.613807 -3.14405,3.144049 -7.66398,4.614305 -12.04448,3.917874 z M 86.840033,99.293297 c 0,-0.07621 0.820884,-1.405758 1.824185,-2.954563 l 1.824185,-2.816005 0.58685,1.168622 c 0.322767,0.642745 1.060431,1.802813 1.639253,2.577931 0.578822,0.775118 1.011903,1.442985 0.962403,1.484151 -0.123077,0.102351 -5.374867,0.678418 -6.184901,0.678418 -0.358586,0 -0.651975,-0.06235 -0.651975,-0.138554 z m 36.989557,-1.379469 -1.50732,-0.09505 1.03909,-1.607683 c 0.5715,-0.884224 1.18442,-2.009565 1.36204,-2.500757 0.17761,-0.491191 0.39512,-0.893074 0.48334,-0.893074 0.0882,0 0.74324,0.803672 1.45561,1.785937 0.71236,0.982266 1.5829,2.172891 1.93451,2.645834 l 0.63931,0.859896 -1.94963,-0.05003 c -1.0723,-0.02752 -2.62793,-0.0928 -3.45695,-0.145079 z M 86.190699,88.812979 c -1.594061,-0.718976 -2.942212,-1.351148 -2.995891,-1.404826 -0.09419,-0.09419 5.286153,-3.057552 5.551365,-3.057552 0.07189,0 0.203585,1.109316 0.292646,2.465145 0.08906,1.35583 0.238819,2.665518 0.332796,2.910416 0.233305,0.607983 0.118865,0.57513 -3.180916,-0.913183 z m 40.072251,-2.767085 c 0,-2.5038 0.0476,-2.791958 0.43693,-2.642574 0.24032,0.09222 1.55429,0.659629 2.91994,1.260916 l 2.48301,1.093248 -1.39858,0.773228 c -0.76923,0.425276 -2.0832,1.122474 -2.91995,1.549326 l -1.52135,0.776097 z M 87.938669,77.867967 c -1.040812,-1.41191 -1.892653,-2.644276 -1.892979,-2.738591 -6.61e-4,-0.191537 4.824209,-0.105638 5.755399,0.102465 l 0.595431,0.133068 -0.706718,1.119409 c -0.388695,0.615675 -0.965925,1.756462 -1.282733,2.535083 l -0.576014,1.415675 z m 36.521951,0.19878 c -0.14663,-0.400182 -0.68574,-1.380844 -1.19802,-2.179248 -0.51229,-0.798404 -0.87688,-1.506193 -0.81021,-1.572864 0.14018,-0.14018 5.75694,-0.800033 5.87077,-0.689694 0.12813,0.124201 -3.18935,5.16941 -3.39914,5.16941 -0.10824,0 -0.31677,-0.327421 -0.4634,-0.727604 z M 95.213911,71.452164 c -0.07065,-0.254661 -0.201213,-1.177396 -0.290149,-2.050521 -0.08893,-0.873125 -0.231242,-2.0519 -0.316239,-2.6195 -0.188236,-1.257028 -0.21069,-1.262864 2.925598,0.760382 l 2.335453,1.506622 -1.553333,0.929063 c -0.854333,0.510984 -1.799131,1.155843 -2.099552,1.433019 -0.67501,0.622782 -0.838513,0.629463 -1.001778,0.04093 z m 22.979249,-0.775003 c -0.29104,-0.223453 -1.33399,-0.798115 -2.31767,-1.277026 l -1.7885,-0.870747 2.38875,-1.746685 c 1.31381,-0.960677 2.44606,-1.746685 2.51611,-1.746685 0.17021,0 0.11148,2.674822 -0.0998,4.545065 -0.1641,1.452573 -0.18726,1.488893 -0.69889,1.096078 z m -13.89063,-3.146126 c 0,-0.120088 2.11771,-4.928485 2.30175,-5.226257 0.11873,-0.19212 2.96227,4.686501 2.97985,5.11249 0.003,0.07276 -1.18413,0.148381 -2.63807,0.168045 -1.45394,0.01966 -2.64353,-0.0048 -2.64353,-0.05428 z"
           style="fill:#ffcc00;fill-opacity:1;stroke-width:0.26458332" />
        <path
           inkscape:connector-curvature="0"
           id="path3778"
           d="m 106.77925,108.14177 c -0.85287,-1.65213 -1.58792,-3.08977 -1.63344,-3.19476 -0.0455,-0.10499 1.29417,-0.228 2.97709,-0.27334 1.68291,-0.0453 3.05961,-0.0556 3.05932,-0.0228 -2.7e-4,0.0328 -0.64217,1.50756 -1.42641,3.2772 l -1.4259,3.21754 -1.55066,-3.00387 z m -10.6788,-2.72038 c 0,-1.51162 0.0735,-3.11587 0.163324,-3.56501 l 0.163323,-0.81662 0.847131,0.64614 c 0.465922,0.35537 1.665823,1.01735 2.666447,1.47105 l 1.819315,0.82492 -0.64696,0.49521 c -0.35582,0.27237 -1.629221,1.21465 -2.829768,2.09396 l -2.182812,1.59874 z m 21.31225,0.0561 -2.88384,-1.86107 1.6452,-0.87901 c 0.90486,-0.48346 2.05784,-1.19376 2.56218,-1.57843 0.65583,-0.50023 0.94806,-0.60087 1.02612,-0.35337 0.17261,0.54726 0.73991,6.32721 0.63164,6.43548 -0.0536,0.0536 -1.39519,-0.74002 -2.9813,-1.7636 z m -12.90336,-6.191928 c -4.649998,-1.127315 -8.603015,-4.821041 -10.016638,-9.359616 -0.734235,-2.357337 -0.733148,-5.867022 0.0026,-8.240252 1.06664,-3.440778 3.760914,-6.595553 6.985498,-8.179447 10.59062,-5.202044 22.31564,4.113647 19.6123,15.58224 -1.71751,7.286333 -9.31655,11.958873 -16.58371,10.197075 z m -17.669307,0.02951 c 0,-0.06423 0.823153,-1.390258 1.829229,-2.94672 l 1.82923,-2.829933 0.66702,1.316302 c 0.366861,0.723967 1.099665,1.883095 1.628452,2.575846 0.528788,0.692748 0.923522,1.289008 0.877188,1.32502 -0.10306,0.0801 -5.722333,0.677191 -6.368098,0.676656 -0.254661,-2.09e-4 -0.463021,-0.05294 -0.463021,-0.117171 z m 37.235777,-1.402426 -1.79026,-0.09266 0.76248,-1.11229 c 0.41937,-0.611761 1.0855,-1.751843 1.48029,-2.533517 0.39479,-0.781672 0.80988,-1.317453 0.92241,-1.190625 0.11253,0.12683 0.89387,1.1831 1.73631,2.347267 0.84244,1.164166 1.64858,2.265494 1.79142,2.447395 0.26877,0.342281 -0.48655,0.36299 -4.90265,0.13443 z m -37.768798,-9.10037 c -1.669175,-0.729724 -3.071761,-1.363668 -3.116858,-1.408764 -0.08061,-0.08061 5.419114,-3.0529 5.64888,-3.0529 0.06472,0 0.122851,0.744141 0.129189,1.653646 0.0063,0.909505 0.115068,2.189427 0.241623,2.844271 0.126555,0.654844 0.208035,1.213101 0.181066,1.24057 -0.02697,0.02747 -1.414724,-0.5471 -3.0839,-1.276823 z M 126.26295,86.04703 c 0,-2.143908 0.0785,-2.779684 0.33073,-2.677886 1.55335,0.626976 5.49091,2.387086 5.43215,2.428202 -0.0409,0.02861 -1.35426,0.729048 -2.91861,1.556535 l -2.84427,1.504524 z m -38.333327,-8.226574 -1.892386,-2.59798 2.055044,-0.08232 c 1.130274,-0.04528 2.563691,-0.0078 3.185371,0.08324 l 1.130328,0.165559 -0.5694,0.799647 c -0.313169,0.439806 -0.895012,1.571442 -1.292985,2.514745 l -0.723586,1.715098 z m 36.653337,0.390107 c -0.0856,-0.33376 -0.62672,-1.320165 -1.20248,-2.192011 -0.57576,-0.871846 -1.0018,-1.630206 -0.94676,-1.685246 0.10897,-0.10897 5.77245,-0.790659 5.87851,-0.70757 0.1165,0.09128 -3.12257,5.034144 -3.35122,5.113993 -0.12233,0.04272 -0.29245,-0.195407 -0.37805,-0.529166 z m -29.388249,-6.87987 c -0.207355,-0.985746 -0.644236,-5.360666 -0.545272,-5.460356 0.05008,-0.05045 1.231653,0.647162 2.625719,1.550245 l 2.534665,1.641968 -1.523957,0.916962 c -0.838177,0.504329 -1.702552,1.068531 -1.920833,1.253782 -0.814016,0.690838 -1.041507,0.709771 -1.170322,0.0974 z m 22.998449,-0.654315 c -0.29104,-0.223022 -1.32529,-0.79316 -2.29832,-1.266971 l -1.76916,-0.861476 2.43061,-1.783723 2.43062,-1.783724 0.0719,0.755371 c 0.0396,0.415455 -0.02,1.788267 -0.1323,3.050695 -0.19947,2.241837 -0.21656,2.285875 -0.73339,1.889828 z m -13.89063,-3.046573 c 0,-0.224569 2.15346,-5.105396 2.33563,-5.293734 0.0992,-0.102524 0.78464,0.998804 1.52328,2.447395 l 1.34296,2.633802 -1.60875,0.0029 c -0.88481,0.0016 -2.05523,0.07671 -2.60093,0.166911 -0.5457,0.0902 -0.99219,0.10942 -0.99219,0.04271 z"
           style="fill:#ffcc00;fill-opacity:1;stroke-width:0.26458332" />
        <path
           inkscape:connector-curvature="0"
           id="path3776"
           d="m 106.64321,107.82539 -1.48513,-2.98355 2.98911,-0.0375 2.98911,-0.0375 -1.30022,2.91809 c -0.71512,1.60495 -1.30021,2.96443 -1.30021,3.02107 0,0.0566 -0.0917,0.10298 -0.20376,0.10298 -0.11207,0 -0.87208,-1.34259 -1.6889,-2.98354 z m -10.49776,-2.93281 c 0.06085,-1.82782 0.187827,-3.4005 0.282169,-3.49484 0.09434,-0.0944 0.527986,0.0823 0.963654,0.39251 0.435668,0.31022 1.582194,0.93376 2.547835,1.38564 0.965642,0.45187 1.657832,0.90988 1.538212,1.01778 -0.11962,0.1079 -1.39312,1.05704 -2.830002,2.1092 l -2.612506,1.91302 z m 21.2863,0.5729 -2.86488,-1.87297 1.90017,-0.99989 c 1.04509,-0.54993 2.13171,-1.20942 2.41471,-1.46553 0.30697,-0.27781 0.60348,-0.36678 0.73501,-0.22055 0.21546,0.23952 0.93066,6.18111 0.76409,6.34769 -0.0463,0.0463 -1.37342,-0.75861 -2.9491,-1.78875 z M 104.63661,99.295826 C 99.814025,98.248079 95.369345,93.87935 94.269376,89.105743 c -0.388905,-1.687756 -0.342701,-5.17849 0.09006,-6.804094 2.245194,-8.433737 11.516144,-12.662325 19.335804,-8.819283 8.53789,4.196024 10.43886,15.467334 3.72448,22.083288 -3.41975,3.369617 -8.12412,4.742376 -12.78311,3.730172 z M 87.102617,98.90642 c 0.15466,-0.288985 0.968375,-1.588023 1.808254,-2.886752 l 1.527053,-2.361321 0.621813,1.172128 c 0.341998,0.64467 1.086681,1.794883 1.654853,2.556023 l 1.03304,1.383895 -2.858486,0.313351 c -4.128716,0.452594 -4.123772,0.452827 -3.786527,-0.177324 z m 37.219503,-0.99456 -2.07313,-0.09058 0.64696,-0.84836 c 0.35582,-0.466598 1.02682,-1.600955 1.4911,-2.520792 l 0.84415,-1.672428 0.47385,0.614095 c 0.26062,0.337754 1.1523,1.536832 1.9815,2.664619 l 1.50765,2.050521 -1.39948,-0.05325 c -0.76971,-0.02929 -2.33238,-0.09401 -3.4726,-0.14383 z M 86.318588,88.816048 c -1.669243,-0.725506 -3.080717,-1.364832 -3.13661,-1.420725 -0.07632,-0.07632 4.103361,-2.323421 5.576284,-2.997945 0.109141,-0.04998 0.203623,0.72272 0.209961,1.717112 0.0063,0.994393 0.109413,2.314002 0.229056,2.932465 0.119644,0.618464 0.203756,1.116315 0.186915,1.106337 -0.01684,-0.01 -1.396363,-0.611738 -3.065606,-1.337244 z m 40.021302,-2.799673 -0.01,-2.703092 0.82625,0.350645 c 0.45444,0.192854 1.75133,0.741401 2.88199,1.218993 1.13066,0.477591 2.02363,0.893801 1.98438,0.924911 -0.0393,0.03111 -1.33181,0.698954 -2.87235,1.4841 l -2.80098,1.427535 -0.01,-2.703092 z m -38.511071,-8.347126 -1.789339,-2.446773 1.524756,-0.08558 c 0.838616,-0.04707 2.255376,-0.0093 3.148355,0.08399 l 1.6236,0.169569 -0.88753,1.473889 c -0.488142,0.81064 -1.019636,1.874173 -1.181098,2.363409 -0.161462,0.489235 -0.373631,0.889239 -0.471486,0.888896 -0.09785,-3.44e-4 -0.983121,-1.10167 -1.967258,-2.447396 z m 36.574891,0.04703 c -0.32693,-0.643984 -0.94104,-1.676896 -1.36468,-2.29536 -0.42364,-0.618464 -0.67523,-1.130192 -0.5591,-1.137175 0.11613,-0.007 1.48254,-0.161811 3.03646,-0.344064 2.53647,-0.297491 2.80155,-0.289431 2.59288,0.07884 -0.12784,0.225616 -0.88015,1.413357 -1.67179,2.639425 l -1.43935,2.229215 z M 95.294004,71.86175 c -0.165199,-1.026113 -0.689366,-5.923171 -0.640324,-5.98227 0.03769,-0.04542 1.219191,0.655384 2.625558,1.557339 l 2.557031,1.639918 -1.052249,0.597688 c -0.578736,0.328729 -1.597889,0.973099 -2.264784,1.431935 -0.666895,0.458835 -1.218249,0.798761 -1.225232,0.75539 z m 23.104406,-1.047726 c -0.17816,-0.215521 -1.16043,-0.798497 -2.18282,-1.295503 -1.02239,-0.497005 -1.85641,-0.964748 -1.85337,-1.039428 0.0145,-0.35749 4.6317,-3.428713 4.69409,-3.122384 0.0382,0.187422 -0.0213,1.580159 -0.13229,3.09497 -0.16313,2.227627 -0.26363,2.679284 -0.52561,2.362345 z m -14.09588,-3.261086 c 0,-0.03436 0.34401,-0.823087 0.76446,-1.75272 0.42044,-0.929633 0.96614,-2.166491 1.21266,-2.748575 l 0.4482,-1.058333 1.31734,2.607332 c 0.72453,1.434033 1.28016,2.638981 1.23473,2.677663 -0.10524,0.08961 -4.97739,0.358441 -4.97739,0.274633 z"
           style="fill:#ffcc00;fill-opacity:1;stroke-width:0.26458332" />
        <path
           inkscape:connector-curvature="0"
           id="path3774"
           d="m 106.64719,107.83237 -1.48116,-2.97656 2.968,-0.0325 2.968,-0.0326 -1.33685,3.00911 c -0.73526,1.65501 -1.40435,3.0091 -1.48684,3.0091 -0.0825,0 -0.81652,-1.33945 -1.63115,-2.97656 z m -10.466244,-3.14155 c 0.0887,-1.76423 0.219089,-3.2655 0.289742,-3.33615 0.07065,-0.0707 0.484917,0.12536 0.920585,0.43558 0.435668,0.31022 1.582194,0.93376 2.547835,1.38564 0.965642,0.45187 1.657832,0.90361 1.538212,1.00385 -0.90734,0.76034 -5.083328,3.71878 -5.24924,3.71878 -0.114629,0 -0.135839,-1.44347 -0.04713,-3.2077 z m 21.294974,0.77439 -2.83391,-1.83919 1.51099,-0.79411 c 0.83104,-0.43676 1.90577,-1.09482 2.38827,-1.46235 0.48249,-0.36753 0.95156,-0.59394 1.04235,-0.50315 0.16608,0.16608 0.92791,6.26618 0.79655,6.37807 -0.0387,0.033 -1.34561,-0.76771 -2.90425,-1.77927 z M 104.8317,99.281938 c -2.69506,-0.583623 -4.927485,-1.816639 -6.879167,-3.799501 -2.741536,-2.785338 -3.959861,-5.769972 -3.965609,-9.714903 -0.0067,-4.615914 2.252568,-8.867776 6.055276,-11.395682 2.2912,-1.523107 4.64491,-2.216692 7.50976,-2.212955 4.1901,0.0055 7.31042,1.31986 10.05137,4.233999 7.6689,8.15348 3.19391,21.244435 -7.87684,23.042622 -2.02268,0.328536 -2.7779,0.304843 -4.89479,-0.15358 z M 87.13301,98.880631 c 0.22639,-0.351673 1.038456,-1.62167 1.804589,-2.822217 0.766135,-1.200547 1.427469,-2.182813 1.469633,-2.182813 0.04216,0 0.559884,0.813385 1.15049,1.807522 0.590605,0.994135 1.259018,1.961214 1.485361,2.149063 0.860616,0.714248 0.453348,0.99093 -1.726175,1.172696 -1.17574,0.09805 -2.690716,0.254075 -3.366613,0.346718 l -1.228904,0.168439 z m 37.63294,-0.968507 -2.42304,-0.08699 0.93792,-1.379455 c 0.51585,-0.758701 1.16968,-1.895367 1.45296,-2.525924 0.28327,-0.630558 0.54455,-1.106808 0.58062,-1.058334 0.0361,0.04847 0.91885,1.248995 1.96174,2.667823 l 1.89614,2.579688 -0.99165,-0.05491 c -0.54541,-0.0302 -2.08202,-0.09406 -3.41469,-0.141899 z M 86.443158,88.833569 c -1.309687,-0.572542 -2.619375,-1.143749 -2.910416,-1.269344 -0.440873,-0.190256 -0.03252,-0.477779 2.447395,-1.723201 l 2.976563,-1.494843 0.0029,1.788148 c 0.0016,0.983481 0.07671,2.234632 0.16691,2.780335 0.0902,0.545703 0.05912,0.984922 -0.06906,0.97604 -0.128181,-0.0089 -1.304619,-0.484593 -2.614307,-1.057135 z m 39.932982,-2.879524 -0.0191,-2.629563 0.81285,0.34958 c 0.44706,0.192269 1.58675,0.681351 2.53264,1.086849 0.94588,0.405497 1.82422,0.827571 1.95186,0.937941 0.17123,0.148074 -4.75247,2.885921 -5.1882,2.884919 -0.039,-9e-5 -0.0795,-1.183466 -0.09,-2.629726 z M 88.824408,78.994538 C 88.387846,78.38325 87.56409,77.235802 86.993839,76.444653 l -1.036819,-1.438452 2.982185,0.157323 c 1.640202,0.08653 3.021114,0.196252 3.068693,0.243832 0.11239,0.112389 -2.083571,4.671721 -2.257448,4.686994 -0.07276,0.0064 -0.489479,-0.488525 -0.926042,-1.099812 z m 35.575382,-1.285942 c -0.32478,-0.639762 -0.92712,-1.654685 -1.33854,-2.255387 l -0.74803,-1.092184 0.98268,-0.149533 c 1.94194,-0.295505 4.81913,-0.509543 4.81913,-0.358503 0,0.08475 -0.70306,1.248656 -1.56236,2.586452 l -1.56237,2.432358 z M 95.294004,71.74815 c -0.007,-0.126412 -0.163045,-1.512173 -0.346805,-3.07947 -0.18376,-1.567296 -0.261876,-2.817452 -0.173592,-2.778125 0.08828,0.03933 1.261259,0.774682 2.606609,1.63412 l 2.446091,1.562615 -1.289054,0.704924 c -0.70898,0.387708 -1.725891,1.038115 -2.259803,1.44535 -0.533913,0.407235 -0.976463,0.636999 -0.983446,0.510586 z m 21.973116,-1.697462 c -0.65485,-0.424708 -1.57758,-0.902549 -2.05052,-1.061869 -0.47295,-0.15932 -0.85302,-0.369735 -0.8446,-0.467591 0.0173,-0.200863 4.54503,-3.510993 4.65377,-3.402252 0.14335,0.143351 -0.25701,5.737219 -0.40946,5.720892 -0.0872,-0.0093 -0.69435,-0.364472 -1.34919,-0.78918 z m -12.70253,-3.016215 c 0.11515,-0.298785 0.53054,-1.257621 0.92308,-2.130746 0.39254,-0.873125 0.83317,-1.885157 0.97917,-2.248959 0.24824,-0.618543 0.35079,-0.492294 1.58057,1.945874 0.72331,1.434033 1.27794,2.640461 1.23251,2.680953 -0.0454,0.04049 -1.17207,0.123683 -2.50365,0.184872 -2.3542,0.108181 -2.41527,0.09625 -2.21168,-0.431994 z"
           style="fill:#ffcc00;fill-opacity:1;stroke-width:0.26458332" />
      </g>
    </g>
  </g>
</svg>
