<?xml version="1.0" encoding="UTF-8" standalone="no"?>
<svg
   xmlns:dc="http://purl.org/dc/elements/1.1/"
   xmlns:cc="http://creativecommons.org/ns#"
   xmlns:rdf="http://www.w3.org/1999/02/22-rdf-syntax-ns#"
   xmlns:svg="http://www.w3.org/2000/svg"
   xmlns="http://www.w3.org/2000/svg"
   xmlns:sodipodi="http://sodipodi.sourceforge.net/DTD/sodipodi-0.dtd"
   xmlns:inkscape="http://www.inkscape.org/namespaces/inkscape"
   id="svg3759"
   version="1.1"
   viewBox="0 0 41.548622 43.091991"
   height="43.091991mm"
   width="41.548622mm"
   sodipodi:docname="winter.svg"
   inkscape:version="0.92.4 (5da689c313, 2019-01-14)">
  <sodipodi:namedview
     pagecolor="#ffffff"
     bordercolor="#666666"
     borderopacity="1"
     objecttolerance="10"
     gridtolerance="10"
     guidetolerance="10"
     inkscape:pageopacity="0"
     inkscape:pageshadow="2"
     inkscape:window-width="1920"
     inkscape:window-height="1137"
     id="namedview15"
     showgrid="false"
     inkscape:zoom="0.2102413"
     inkscape:cx="-638.47798"
     inkscape:cy="-54.383"
     inkscape:window-x="-8"
     inkscape:window-y="-8"
     inkscape:window-maximized="1"
     inkscape:current-layer="svg3759" />
  <defs
     id="defs3753" />
  <metadata
     id="metadata3756">
    <rdf:RDF>
      <cc:Work
         rdf:about="">
        <dc:format>image/svg+xml</dc:format>
        <dc:type
           rdf:resource="http://purl.org/dc/dcmitype/StillImage" />
        <dc:title />
      </cc:Work>
    </rdf:RDF>
  </metadata>
  <g
     id="layer1"
     style="fill:#009aff;fill-opacity:1"
     transform="translate(-69.428512,-91.019177)">
    <g
       style="fill:#009aff;fill-opacity:1"
       transform="translate(-137.58333,-58.208333)"
       id="g3812">
      <path
         id="path3828"
         d="m 229.6042,190.41589 -1.9632,-1.90362 -1.65374,1.63903 c -1.63255,1.61805 -2.40826,1.95506 -3.04178,1.32154 -0.58595,-0.58595 -0.32654,-1.18361 1.27,-2.92595 l 1.5875,-1.73248 v -2.40683 c 0,-1.32375 -0.0399,-2.40683 -0.0885,-2.40683 -0.0487,0 -1.25901,0.47625 -2.68959,1.05834 -1.43058,0.58208 -2.74438,1.05833 -2.91956,1.05833 -0.28095,0 -0.90785,-3.5242 -0.92095,-5.17729 -0.0102,-1.29307 -0.38063,-1.28968 -2.69125,0.0246 l -2.225,1.2656 -0.58516,2.27427 c -0.60554,2.35352 -1.03644,2.97439 -1.9064,2.74689 -0.81915,-0.21422 -0.85229,-0.94484 -0.15512,-3.42034 0.36109,-1.28213 0.61436,-2.37331 0.56283,-2.42484 -0.0515,-0.0515 -1.02676,-0.33261 -2.16717,-0.62461 -2.77802,-0.71133 -3.1855,-1.0907 -2.36973,-2.20634 0.35649,-0.48753 0.42434,-0.48459 2.84667,0.12355 l 2.48147,0.62299 2.04812,-1.12408 c 1.12647,-0.61823 2.04813,-1.20282 2.04813,-1.29909 0,-0.0963 -1.12885,-1.06576 -2.50854,-2.15445 -1.92706,-1.52059 -2.43304,-2.04848 -2.18282,-2.27734 0.17915,-0.16386 1.41119,-1.12682 2.73786,-2.13993 l 2.41213,-1.842 -2.42923,-1.35495 -2.42924,-1.35495 -2.39608,0.60967 c -2.61018,0.66415 -3.25825,0.5636 -3.25825,-0.50552 0,-0.79783 0.0703,-0.83763 2.81048,-1.59153 1.24808,-0.34338 2.31529,-0.67039 2.37158,-0.72668 0.0563,-0.0563 -0.13415,-0.95575 -0.42319,-1.9988 -0.63173,-2.27966 -0.6509,-2.79266 -0.12083,-3.23258 0.29253,-0.24278 0.56756,-0.2614 0.99219,-0.0672 0.45839,0.20966 0.72154,0.78547 1.19759,2.62053 l 0.6101,2.35183 2.16802,1.23758 c 2.51686,1.43672 2.31388,1.59246 2.82481,-2.16751 0.18785,-1.38245 0.42594,-2.60824 0.52907,-2.72398 0.10314,-0.11575 1.29803,0.27121 2.65531,0.85989 1.35728,0.58869 2.56632,1.07034 2.68675,1.07034 0.12042,0 0.21895,-1.12659 0.21895,-2.50354 v -2.50354 l -1.45521,-1.63088 c -1.52238,-1.70617 -1.73113,-2.30874 -1.03943,-3.00043 0.6693,-0.66931 1.11951,-0.49726 2.43459,0.93038 1.98191,2.15155 1.97085,2.15124 4.02518,0.11264 1.36884,-1.35834 1.93012,-1.74891 2.41483,-1.68038 0.44665,0.0632 0.6538,0.28291 0.70768,0.75075 0.0591,0.51331 -0.31126,1.04494 -1.65365,2.37361 l -1.72982,1.71214 v 2.85192 c 0,1.56855 0.0501,2.85191 0.1114,2.85191 0.0613,0 1.45108,-0.53504 3.08845,-1.18898 1.63738,-0.65394 3.00081,-1.15995 3.02985,-1.12448 0.0564,0.0689 0.91902,6.02857 0.9159,6.32787 -0.001,0.0979 1.06229,-0.4379 2.36291,-1.19062 l 2.36476,-1.36858 0.6118,-2.34084 c 0.65246,-2.49638 1.11249,-3.06479 2.06701,-2.55395 0.66281,0.35473 0.66062,0.6884 -0.0204,3.11562 -0.30229,1.07731 -0.49273,2.01564 -0.42319,2.08518 0.0695,0.0695 1.14758,0.40738 2.39566,0.75076 1.24808,0.34338 2.39102,0.69959 2.53986,0.79158 0.40612,0.25099 0.32574,1.08383 -0.14207,1.47208 -0.34145,0.28337 -0.81812,0.23798 -2.76105,-0.26293 l -2.34835,-0.60543 -2.19989,1.21458 c -1.20994,0.66802 -2.35838,1.31993 -2.55209,1.44869 -0.25813,0.17157 0.30722,0.7489 2.11667,2.16148 1.35787,1.06006 2.5679,2.01525 2.68895,2.12266 0.12105,0.1074 -0.83145,1.00426 -2.11666,1.99302 -1.28522,0.98876 -2.42081,1.86674 -2.52354,1.95107 -0.10273,0.0843 0.82622,0.72953 2.06434,1.43378 l 2.25112,1.28046 2.05472,-0.55443 c 2.53599,-0.68428 3.11672,-0.69264 3.46074,-0.0498 0.42969,0.80288 -0.41405,1.48053 -2.50039,2.00819 -1.01864,0.25763 -1.93996,0.54632 -2.04736,0.64153 -0.10741,0.0952 0.11224,1.2954 0.4881,2.66707 l 0.6834,2.49394 -0.57883,0.4687 c -1.10369,0.89372 -1.58878,0.18658 -2.57723,-3.75695 -0.20305,-0.81008 -0.53805,-1.10412 -2.67519,-2.34817 -1.34368,-0.78218 -2.48911,-1.37609 -2.54539,-1.31981 -0.0563,0.0563 -0.30821,1.58921 -0.55985,3.40651 -0.25164,1.8173 -0.47825,3.33375 -0.50357,3.36989 -0.0253,0.0361 -0.81023,-0.24502 -1.74423,-0.62479 -0.934,-0.37977 -2.26373,-0.91362 -2.95495,-1.18632 l -1.25677,-0.49584 v 2.66086 2.66086 l 1.71979,1.71135 c 0.94588,0.94124 1.71979,1.87674 1.71979,2.07888 0,0.4299 -0.70911,1.19908 -1.10544,1.19908 -0.15063,0 -1.15732,-0.85662 -2.23709,-1.90361 z m 4.14091,-14.51961 c -0.36635,-0.22876 -1.46976,-0.86409 -2.45203,-1.41183 l -1.78594,-0.99591 0.003,3.13163 0.003,3.13163 2.04758,0.82987 2.04758,0.82987 0.40151,-2.54967 0.40151,-2.54966 z m -10.16516,4.56282 1.82615,-0.74792 0.075,-2.97734 c 0.0412,-1.63755 -0.0183,-2.92428 -0.13229,-2.85942 -3.74823,2.13246 -4.58574,2.68423 -4.48253,2.95318 0.0672,0.17514 0.20808,1.14286 0.31305,2.15048 0.17563,1.68594 0.29694,2.22892 0.49799,2.22892 0.0421,0 0.89823,-0.33655 1.90262,-0.7479 z m -1.16293,-8.51122 c 1.1209,-0.63287 1.98179,-1.24162 1.91308,-1.35279 -0.0687,-0.11117 -1.19389,-0.81385 -2.50041,-1.56151 l -2.37549,-1.35939 -1.81286,1.40859 c -0.99707,0.77473 -1.8432,1.51347 -1.88028,1.64165 -0.0371,0.12818 0.73703,0.87414 1.72024,1.65768 1.62759,1.29706 1.83737,1.39292 2.34269,1.07053 0.30527,-0.19475 1.47213,-0.87189 2.59303,-1.50476 z m 15.57913,0.35655 c 0.86084,-0.67631 1.56516,-1.30447 1.56516,-1.39591 0,-0.25227 -3.7105,-2.97562 -3.92524,-2.88096 -0.78325,0.34527 -4.29291,2.40805 -4.40461,2.58878 -0.15217,0.24623 4.26674,2.90068 4.84646,2.91129 0.19419,0.004 1.0574,-0.54689 1.91823,-1.2232 z m -4.68715,-6.64688 1.02373,-0.6366 -0.18407,-1.63041 c -0.10124,-0.89673 -0.24656,-1.9437 -0.32292,-2.3266 l -0.13885,-0.69619 -2.15602,0.86925 -2.15602,0.86925 -0.075,2.9603 -0.075,2.9603 1.53025,-0.86635 c 0.84164,-0.4765 1.99093,-1.15282 2.55398,-1.50295 z m -7.8278,-1.01741 -0.0751,-2.80854 -1.85208,-0.73526 -1.85209,-0.73526 -0.17859,0.64475 c -0.0982,0.35461 -0.25736,1.38377 -0.35363,2.28702 l -0.17504,1.64228 2.07343,1.23576 c 1.14038,0.67967 2.16674,1.24522 2.28081,1.25677 0.11406,0.0116 0.17359,-1.24283 0.13229,-2.78752 z"
         style="fill:#009aff;fill-opacity:1;stroke-width:0.26458332"
         inkscape:connector-curvature="0" />
      <path
         id="path3826"
         d="m 229.62042,190.43161 -1.97942,-1.91934 -1.65374,1.63903 c -1.82827,1.81203 -2.64631,2.06735 -3.1415,0.98052 -0.27546,-0.60455 -0.16656,-0.80872 1.32858,-2.49103 l 1.62864,-1.8325 v -2.40377 c 0,-1.32207 -0.0571,-2.40377 -0.12698,-2.40377 -0.0698,0 -1.32238,0.47625 -2.78344,1.05834 -1.46106,0.58208 -2.75472,1.05833 -2.87479,1.05833 -0.12008,0 -0.36369,-1.22039 -0.54135,-2.71198 -0.51359,-4.31197 -0.22396,-4.0585 -2.8927,-2.53152 l -2.29698,1.31427 -0.65803,2.42764 c -0.59959,2.21206 -0.71877,2.43469 -1.34213,2.50716 -1.28539,0.14941 -1.41179,-0.44806 -0.66943,-3.16431 0.43397,-1.58783 0.57504,-2.51257 0.39982,-2.62086 -0.14892,-0.092 -1.166,-0.39027 -2.26018,-0.66274 -2.00342,-0.49889 -2.63054,-0.98729 -2.31696,-1.80446 0.26515,-0.69099 0.95057,-0.7034 3.2842,-0.0595 l 2.25126,0.62119 2.18928,-1.25172 2.18928,-1.25173 -2.52231,-2.02874 c -1.38727,-1.1158 -2.51799,-2.11424 -2.51271,-2.21875 0.005,-0.1045 1.18805,-1.07728 2.62836,-2.16172 2.96705,-2.23395 2.9963,-1.87717 -0.30163,-3.67967 l -2.02928,-1.10912 -1.93415,0.53598 c -2.44391,0.67724 -3.31603,0.68816 -3.52045,0.0441 -0.30547,-0.96246 0.12926,-1.31277 2.36075,-1.90227 1.20919,-0.31943 2.34087,-0.66876 2.51484,-0.77627 0.23812,-0.14717 0.18003,-0.65306 -0.23504,-2.04678 -0.68299,-2.29335 -0.69062,-2.8917 -0.0413,-3.23919 1.07542,-0.57555 1.31107,-0.231 2.27611,3.32793 l 0.43885,1.6184 2.1536,1.21463 c 1.50561,0.84916 2.20497,1.1185 2.3243,0.89514 0.0939,-0.17571 0.32407,-1.54516 0.51154,-3.04322 0.18746,-1.49805 0.43083,-2.77935 0.54083,-2.84733 0.11,-0.068 1.30123,0.35402 2.64718,0.93779 1.34595,0.58377 2.54571,1.0614 2.66614,1.0614 0.12042,0 0.21895,-1.14177 0.21895,-2.53727 v -2.53727 l -1.45402,-1.62992 c -0.79971,-0.89645 -1.45455,-1.81982 -1.4552,-2.05193 -0.001,-0.44803 0.79618,-1.29778 1.21791,-1.29778 0.13826,0 1.01874,0.77423 1.9566,1.72051 l 1.70521,1.7205 1.86524,-1.8528 c 1.86846,-1.85598 2.39797,-2.12783 2.99051,-1.53529 0.59338,0.59338 0.31993,1.15059 -1.40229,2.8575 l -1.71979,1.7045 v 2.85192 c 0,1.56855 0.0571,2.85191 0.12697,2.85191 0.0698,0 1.34976,-0.48929 2.84427,-1.08731 1.49452,-0.59803 2.84972,-1.14025 3.01158,-1.20495 0.19128,-0.0765 0.40229,0.74393 0.60292,2.34409 0.16975,1.35394 0.37549,2.83529 0.45719,3.29188 l 0.14855,0.83016 2.3454,-1.34197 2.3454,-1.34197 0.58883,-2.22895 c 0.53959,-2.04257 1.01256,-2.96514 1.52013,-2.96514 0.10732,0 0.42343,0.16694 0.70247,0.37098 0.49837,0.36442 0.49663,0.41185 -0.0987,2.68176 -0.33333,1.27092 -0.50911,2.39727 -0.39063,2.50299 0.11849,0.10572 1.00657,0.38539 1.97352,0.62149 2.58402,0.63095 3.1367,0.88763 3.1367,1.45675 0,1.08411 -0.64935,1.21529 -2.98358,0.60276 -1.19669,-0.31403 -2.30828,-0.56936 -2.47021,-0.56739 -0.32619,0.004 -5.12954,2.62946 -5.12954,2.80379 0,0.0603 1.19452,1.05392 2.65448,2.20809 l 2.65448,2.0985 -2.1813,1.67212 c -1.19972,0.91966 -2.34248,1.79527 -2.53948,1.9458 -0.27474,0.20992 0.17182,0.57117 1.91677,1.55063 l 2.27495,1.27694 2.32253,-0.60594 c 2.57001,-0.67052 3.21632,-0.59064 3.21632,0.39749 0,0.78663 -0.38848,1.02142 -2.65202,1.60283 -0.94248,0.24209 -1.80968,0.53296 -1.92709,0.64638 -0.11742,0.11341 0.0828,1.2583 0.44495,2.54419 0.72496,2.57417 0.61656,3.294 -0.49605,3.294 -0.76292,0 -0.95331,-0.33506 -1.57854,-2.77812 -0.26069,-1.01865 -0.60748,-1.99215 -0.77064,-2.16335 -0.54686,-0.57378 -4.92686,-2.97531 -4.92686,-2.70137 0,0.43426 -0.81857,6.15597 -0.93095,6.50725 -0.0696,0.21747 -1.00209,-0.0574 -2.91757,-0.85989 -1.54843,-0.64873 -2.86377,-1.17952 -2.92299,-1.17952 -0.0592,0 -0.10766,1.21741 -0.10766,2.70534 v 2.70534 l 1.75667,1.77024 c 1.8214,1.83546 1.96494,2.29751 0.89213,2.87167 -0.49529,0.26506 -0.77256,0.0877 -2.53552,-1.62173 z m 4.46615,-11.78026 0.35476,-2.42335 -2.26866,-1.28081 c -1.24776,-0.70445 -2.41303,-1.31845 -2.58949,-1.36445 -0.24017,-0.0626 -0.30669,0.69294 -0.26458,3.00505 l 0.0563,3.0887 2.11667,0.87948 c 1.16416,0.48371 2.14448,0.79831 2.17848,0.69911 0.034,-0.0992 0.22145,-1.27088 0.41657,-2.60373 z m -10.46641,1.83761 1.91823,-0.72716 v -2.99707 -2.99707 l -1.84933,1.00769 c -3.06229,1.66863 -2.91601,1.4348 -2.57507,4.11655 0.16188,1.27331 0.36039,2.31715 0.44114,2.31966 0.0807,0.002 1.01001,-0.32267 2.06503,-0.7226 z m -1.75951,-8.17341 c 1.44068,-0.81572 2.6169,-1.55986 2.61384,-1.65365 -0.003,-0.0938 -1.13454,-0.80792 -2.51439,-1.58696 l -2.50882,-1.41643 -1.99272,1.5263 c -1.2786,0.97932 -1.90134,1.61769 -1.73772,1.78131 0.39073,0.39072 3.32286,2.80102 3.42783,2.81777 0.0509,0.008 1.27131,-0.65262 2.71198,-1.46834 z m 17.9082,-1.31144 c 0.0414,-0.0252 -0.83207,-0.74081 -1.94101,-1.59019 l -2.01625,-1.54433 -1.36629,0.7623 c -0.75145,0.41927 -1.86778,1.07173 -2.48071,1.44991 l -1.11443,0.6876 2.69019,1.49412 2.6902,1.49412 1.73152,-1.35383 c 0.95234,-0.7446 1.76539,-1.37447 1.80678,-1.3997 z m -6.23095,-5.37881 0.76819,-0.42559 -0.17785,-1.96909 c -0.28013,-3.1013 -0.16887,-3.01583 -2.63672,-2.02568 l -2.11667,0.84925 -0.0751,2.98958 -0.0751,2.98959 1.7725,-0.99124 c 0.97488,-0.54518 2.11819,-1.18275 2.54069,-1.41682 z m -8.0567,-1.00063 -0.0751,-2.824 -1.82891,-0.749 c -1.00589,-0.41196 -1.86219,-0.71572 -1.90287,-0.67504 -0.11375,0.11375 -0.62959,3.42791 -0.63185,4.05947 -0.001,0.41785 0.5166,0.86582 2.04853,1.77126 1.12778,0.66657 2.14384,1.21856 2.25791,1.22663 0.11406,0.008 0.17359,-1.25612 0.13229,-2.80932 z"
         style="fill:#009aff;fill-opacity:1;stroke-width:0.26458332"
         inkscape:connector-curvature="0" />
      <path
         id="path3824"
         d="m 229.4521,190.29079 -1.77484,-1.78065 -1.70799,1.6401 c -1.86119,1.78721 -2.64335,2.03541 -3.11969,0.98998 -0.27042,-0.59352 -0.15475,-0.80968 1.32859,-2.48281 l 1.62481,-1.83269 v -2.41198 c 0,-1.32659 -0.0571,-2.41199 -0.12698,-2.41199 -0.0698,0 -1.32238,0.47625 -2.78344,1.05834 -1.46106,0.58208 -2.75382,1.05833 -2.8728,1.05833 -0.11899,0 -0.36708,-1.35242 -0.55131,-3.00538 -0.18424,-1.65296 -0.41192,-3.12625 -0.50595,-3.27398 -0.10215,-0.16046 -1.09146,0.25604 -2.45732,1.03454 l -2.28634,1.30314 -0.43366,1.7724 c -0.65937,2.69484 -0.92479,3.22761 -1.60795,3.22761 -1.18153,0 -1.27609,-0.55278 -0.54869,-3.20732 0.50829,-1.85495 0.59458,-2.50321 0.35304,-2.65248 -0.17581,-0.10866 -1.13223,-0.3967 -2.12539,-0.64008 -1.99959,-0.49003 -2.594,-0.90729 -2.39213,-1.67924 0.21358,-0.81675 0.731,-0.84541 3.22292,-0.17852 l 2.33669,0.62534 2.17978,-1.2696 2.17978,-1.26961 -2.537,-2.01972 c -1.39535,-1.11085 -2.53144,-2.10375 -2.52464,-2.20644 0.007,-0.10268 1.19304,-1.07413 2.63609,-2.15877 1.44305,-1.08464 2.59834,-1.99635 2.56732,-2.02601 -0.031,-0.0297 -1.12362,-0.66955 -2.428,-1.42195 l -2.37159,-1.368 -2.29156,0.59079 c -2.36862,0.61066 -3.04223,0.57268 -3.33412,-0.18797 -0.25784,-0.67191 0.62802,-1.2293 2.84485,-1.79 1.08227,-0.27373 2.06308,-0.58232 2.17956,-0.68575 0.11649,-0.10342 -0.0621,-1.22697 -0.39687,-2.49678 -0.60019,-2.27656 -0.60153,-2.31397 -0.096,-2.68471 0.42663,-0.31289 0.6004,-0.31771 1.03562,-0.0287 0.48663,0.32311 0.74037,0.97421 1.47781,3.79211 0.26319,1.00573 0.46748,1.20006 2.43068,2.31234 1.17883,0.66788 2.23091,1.16021 2.33796,1.09405 0.10704,-0.0662 0.34808,-1.36418 0.53565,-2.8845 0.18757,-1.52033 0.42223,-2.8956 0.52147,-3.05618 0.12078,-0.19543 1.07099,0.0975 2.87419,0.88616 l 2.69375,1.17811 v -2.6659 -2.6659 l -1.45521,-1.6575 c -0.80036,-0.91163 -1.4552,-1.82912 -1.4552,-2.03886 0,-0.39107 0.80674,-1.25712 1.17103,-1.25712 0.11184,0 1.00172,0.77078 1.97753,1.71285 l 1.7742,1.71285 1.831,-1.84514 c 1.8279,-1.84201 2.38382,-2.12672 2.9829,-1.52764 0.59338,0.59338 0.31993,1.15059 -1.40229,2.8575 l -1.71979,1.7045 v 2.85192 c 0,1.56855 0.0994,2.85191 0.22083,2.85191 0.12145,0 1.3913,-0.47625 2.82188,-1.05833 1.43058,-0.58208 2.74654,-1.05833 2.92435,-1.05833 0.21174,0 0.43961,0.93587 0.66032,2.71198 0.49136,3.95396 0.27106,3.78633 2.96123,2.25321 2.13498,-1.21672 2.33461,-1.4021 2.59965,-2.41396 1.0546,-4.02617 1.309,-4.43867 2.38299,-3.86389 0.63581,0.34027 0.6344,0.41871 -0.0532,2.96713 -0.31723,1.1757 -0.46169,2.17695 -0.33073,2.29245 0.12788,0.11279 1.27141,0.47764 2.54117,0.81078 2.46508,0.64675 3.07775,1.21407 2.22837,2.06345 -0.37314,0.37314 -0.61035,0.35783 -2.50642,-0.16179 -1.15184,-0.31567 -2.28924,-0.57395 -2.52754,-0.57395 -0.48829,0 -5.19766,2.61265 -5.18061,2.87408 0.006,0.0927 1.13714,1.03824 2.51354,2.1011 1.3764,1.06286 2.50254,2.01692 2.50254,2.12013 0,0.10321 -1.07156,1.00486 -2.38125,2.00367 -1.30969,0.99881 -2.38125,1.84776 -2.38125,1.88656 0,0.0388 0.98227,0.63385 2.18281,1.32234 l 2.18282,1.25179 2.31353,-0.58045 c 2.59715,-0.65161 3.37501,-0.56155 3.37501,0.39076 0,0.75183 -0.34553,0.95279 -2.72237,1.58342 -0.98799,0.26213 -1.85633,0.57368 -1.92966,0.69233 -0.0733,0.11865 0.15887,1.28207 0.51601,2.58539 0.7221,2.63519 0.58072,3.33161 -0.64131,3.15912 -0.56679,-0.08 -0.7283,-0.376 -1.30809,-2.39736 -0.3638,-1.26835 -0.79771,-2.44045 -0.96425,-2.60467 -0.30043,-0.29626 -4.68433,-2.86997 -4.76783,-2.79912 -0.0239,0.0203 -0.24114,1.46571 -0.48266,3.21196 -0.24151,1.74625 -0.48359,3.31735 -0.53795,3.49135 -0.0668,0.21368 -0.88336,-0.019 -2.51622,-0.71686 -3.8129,-1.62966 -3.43109,-1.78192 -3.43109,1.36822 v 2.72317 l 1.78235,1.79612 c 1.49375,1.50528 1.73577,1.87052 1.49467,2.2556 -0.62217,0.99371 -1.47061,0.69519 -3.33206,-1.17236 z m 4.29409,-9.01764 c 0.003,-0.10914 0.16848,-1.27 0.36741,-2.57969 0.19894,-1.30969 0.3452,-2.39772 0.32502,-2.41785 -0.0626,-0.0625 -4.23962,-2.51285 -4.73968,-2.78048 -0.44389,-0.23756 -0.46833,-0.055 -0.39849,2.97675 l 0.0744,3.22983 1.98438,0.8584 c 2.1853,0.94532 2.37861,1.00307 2.38696,0.71304 z m -10.01234,-0.79375 1.79802,-0.7276 0.003,-2.99861 c 0.002,-1.64924 -0.0886,-2.95893 -0.20093,-2.91042 -0.72763,0.31428 -4.30515,2.40616 -4.41275,2.58027 -0.22535,0.36462 0.46486,4.78396 0.74715,4.78396 0.14698,0 1.07634,-0.32742 2.06525,-0.7276 z m -1.85033,-8.1509 c 1.4281,-0.80859 2.59575,-1.55274 2.59479,-1.65365 -0.001,-0.14711 -3.99991,-2.56451 -4.83079,-2.92057 -0.11714,-0.0502 -1.11474,0.58745 -2.21689,1.417 -1.79617,1.35191 -1.96207,1.55011 -1.60028,1.9119 0.51575,0.51576 3.18853,2.67356 3.34119,2.69743 0.0635,0.01 1.28389,-0.64352 2.71198,-1.45211 z m 16.16584,0.0301 1.79534,-1.41764 -1.90678,-1.48157 c -1.04873,-0.81486 -2.0211,-1.48157 -2.16082,-1.48157 -0.13972,0 -1.32417,0.61239 -2.63212,1.36087 -2.08328,1.19217 -2.31677,1.39685 -1.88348,1.65114 2.84473,1.66949 4.75147,2.75612 4.86023,2.76979 0.0728,0.009 0.94019,-0.62131 1.92763,-1.40102 z m -6.00393,-5.8934 2.38875,-1.38032 -0.30281,-2.25775 c -0.16655,-1.24177 -0.3524,-2.30601 -0.413,-2.36499 -0.0606,-0.059 -1.06269,0.27511 -2.22685,0.7424 l -2.11667,0.84963 -0.075,2.98684 c -0.0413,1.64276 0.0221,2.94581 0.14091,2.89568 0.11878,-0.0501 1.2909,-0.71231 2.60471,-1.47149 z m -6.56423,-1.84055 -0.0751,-2.824 -1.82891,-0.749 c -1.00589,-0.41196 -1.87269,-0.70521 -1.92622,-0.65169 -0.14627,0.14628 -0.60721,3.11043 -0.60896,3.91609 -0.001,0.59875 0.30468,0.8833 2.04899,1.90543 1.12778,0.66086 2.14384,1.20733 2.25791,1.21437 0.11406,0.007 0.17359,-1.258 0.13229,-2.8112 z"
         style="fill:#009aff;fill-opacity:1;stroke-width:0.26458332"
         inkscape:connector-curvature="0" />
      <path
         id="path3822"
         d="m 229.44965,190.28253 -1.77239,-1.77239 -1.70799,1.6401 c -0.9394,0.90205 -1.88839,1.6401 -2.10887,1.6401 -0.43399,0 -1.23242,-0.68813 -1.23242,-1.06216 0,-0.12684 0.71437,-1.05858 1.5875,-2.07053 l 1.5875,-1.83991 v -2.40849 c 0,-1.32468 -0.0994,-2.4085 -0.22083,-2.4085 -0.12146,0 -1.38629,0.47421 -2.81073,1.0538 -1.42445,0.57959 -2.67436,1.0016 -2.77759,0.9378 -0.10322,-0.0638 -0.34661,-1.49579 -0.54085,-3.18222 -0.19425,-1.68643 -0.42254,-3.10702 -0.50732,-3.15686 -0.0848,-0.0498 -1.17633,0.48784 -2.42567,1.19485 l -2.27153,1.28549 -0.59832,2.19034 c -0.65605,2.40171 -0.90944,2.8518 -1.6055,2.8518 -1.03552,0 -1.1144,-0.62297 -0.40043,-3.16235 0.37418,-1.33082 0.61866,-2.51943 0.5433,-2.64137 -0.0754,-0.12194 -0.54571,-0.29837 -1.04521,-0.39208 -0.49951,-0.0937 -1.51285,-0.34995 -2.25188,-0.56941 -1.11845,-0.33214 -1.34369,-0.50277 -1.34369,-1.01785 0,-1.16151 0.51152,-1.25504 3.04764,-0.55729 l 2.34454,0.64505 2.19695,-1.24558 c 1.20833,-0.68507 2.19392,-1.30511 2.1902,-1.37787 -0.004,-0.0728 -1.02277,-0.90619 -2.26457,-1.85208 -1.2418,-0.94589 -2.37466,-1.85779 -2.51747,-2.02646 -0.18436,-0.21774 0.41522,-0.82534 2.06788,-2.09552 1.28015,-0.98387 2.48408,-1.9294 2.67541,-2.10117 0.27689,-0.2486 -0.15216,-0.59663 -2.10281,-1.70571 l -2.45068,-1.39338 -2.43772,0.612 c -2.03884,0.51186 -2.50652,0.55491 -2.85814,0.2631 -1.02422,-0.85003 -0.22194,-1.5432 2.62231,-2.26569 1.01864,-0.25875 1.95104,-0.55944 2.07199,-0.6682 0.12095,-0.10876 -0.0408,-1.16393 -0.35943,-2.34482 -0.64392,-2.38637 -0.57519,-2.9429 0.3634,-2.9429 0.75148,0 1.09247,0.37078 1.33829,1.45521 0.77536,3.42043 0.79708,3.4536 3.11554,4.75741 1.1866,0.6673 2.23993,1.12002 2.34074,1.00605 0.10081,-0.11397 0.32602,-1.27877 0.50048,-2.58846 0.17445,-1.30969 0.38087,-2.64197 0.45871,-2.96063 0.15998,-0.65495 -0.0351,-0.70049 3.46559,0.80883 l 2.18281,0.9411 -0.001,-2.70194 -10e-4,-2.70194 -1.47372,-1.65205 c -1.55,-1.73754 -1.67961,-2.26777 -0.71127,-2.90965 0.56279,-0.37305 0.67612,-0.30915 2.39524,1.35051 l 1.80448,1.74209 1.831,-1.84514 c 1.8279,-1.84201 2.38382,-2.12672 2.9829,-1.52764 0.59338,0.59338 0.31993,1.15059 -1.40229,2.8575 l -1.71979,1.7045 v 2.85192 c 0,1.56855 0.0994,2.85191 0.22083,2.85191 0.12145,0 1.3913,-0.47625 2.82188,-1.05833 1.43058,-0.58208 2.7407,-1.05833 2.91138,-1.05833 0.19489,0 0.43799,1.00887 0.65348,2.71198 0.50539,3.9944 0.28759,3.8266 2.96871,2.28724 2.47811,-1.42281 2.4665,-1.40556 3.2757,-4.86693 0.25207,-1.07821 0.59347,-1.45521 1.31779,-1.45521 0.9173,0 0.98213,0.71021 0.284,3.1115 l -0.62857,2.16206 1.48792,0.41713 c 2.97993,0.83542 3.56128,1.06464 3.84041,1.51424 0.21746,0.35028 0.18049,0.56194 -0.15711,0.89954 -0.41225,0.41225 -0.59945,0.39764 -2.82752,-0.22071 l -2.38604,-0.66218 -2.64699,1.49646 -2.64698,1.49645 2.63472,2.05804 c 1.4491,1.13193 2.63466,2.13765 2.63458,2.23495 -7e-5,0.0973 -1.07163,0.99087 -2.38125,1.98572 -1.30961,0.99485 -2.38111,1.84763 -2.38111,1.89507 0,0.17825 4.22326,2.51396 4.55174,2.51739 0.18868,0.002 1.32216,-0.25336 2.51885,-0.56739 2.32542,-0.61023 2.98358,-0.48076 2.98358,0.5869 0,0.61013 -0.44165,0.83438 -2.84427,1.44416 -1.05503,0.26776 -1.91823,0.61511 -1.91823,0.77189 0,0.15677 0.2441,1.1659 0.54244,2.24251 0.72254,2.60737 0.63416,3.32356 -0.41015,3.32356 -0.77657,0 -0.80802,-0.0526 -1.453,-2.43215 l -0.65924,-2.43215 -2.51576,-1.46047 c -2.93182,-1.70201 -2.62603,-1.93849 -3.18718,2.46479 -0.19074,1.49674 -0.47897,2.77206 -0.64051,2.83405 -0.16154,0.062 -1.46151,-0.37525 -2.88882,-0.97163 -1.42732,-0.59638 -2.66664,-1.01281 -2.75405,-0.9254 -0.0874,0.0874 -0.2096,1.21859 -0.27152,2.51373 l -0.11258,2.35479 1.89418,2.00125 c 1.6477,1.74082 1.85716,2.07044 1.60963,2.53295 -0.51168,0.95607 -1.36415,0.62901 -3.23385,-1.24069 z m 4.54598,-10.72917 c 0.16664,-1.05503 0.36219,-2.23079 0.43455,-2.61281 0.11722,-0.61879 -0.0359,-0.78846 -1.40354,-1.55501 -0.84432,-0.47324 -2.04491,-1.15647 -2.66799,-1.51829 l -1.13286,-0.65786 0.0745,3.24666 0.0745,3.24666 1.98438,0.86557 c 1.0914,0.47607 2.06291,0.87407 2.1589,0.88444 0.096,0.0104 0.31087,-0.84434 0.4775,-1.89936 z m -10.24973,0.95038 1.79249,-0.70325 v -3.00091 c 0,-1.6505 -0.0651,-3.00091 -0.14462,-3.00091 -0.10894,0 -4.12835,2.22506 -4.56223,2.52555 -0.22198,0.15374 0.58412,4.88278 0.83231,4.88278 0.15926,0 1.09618,-0.31646 2.08205,-0.70326 z m -1.64598,-8.26786 2.68937,-1.56279 -1.94055,-1.11525 c -1.06731,-0.61338 -2.20426,-1.27934 -2.52656,-1.47991 -0.3223,-0.20057 -0.68887,-0.36468 -0.8146,-0.36468 -0.30896,0 -4.02728,2.9016 -4.00835,3.12791 0.0172,0.20511 3.46455,2.92285 3.7341,2.94376 0.0975,0.008 1.38744,-0.68951 2.86659,-1.54904 z m 15.72513,0.32781 c 0.88218,-0.67924 1.70322,-1.32022 1.82453,-1.42441 0.12131,-0.10419 -0.69843,-0.90602 -1.82165,-1.78185 l -2.0422,-1.59241 -2.2794,1.33181 c -1.25367,0.73249 -2.36762,1.41033 -2.47544,1.5063 -0.15432,0.13736 4.61055,3.1247 5.07437,3.18139 0.0637,0.008 0.83761,-0.54159 1.71979,-1.22083 z m -5.95478,-5.97492 c 1.32171,-0.76398 2.41456,-1.47944 2.42856,-1.58991 0.0788,-0.62156 -0.38054,-4.45175 -0.54613,-4.55409 -0.10836,-0.067 -1.16673,0.26112 -2.35195,0.72909 l -2.15493,0.85085 -0.002,2.97656 c -9e-4,1.63711 0.0489,2.97657 0.11067,2.97657 0.0618,0 1.1937,-0.62508 2.51541,-1.38907 z m -6.33188,-1.98546 v -2.84536 l -1.88989,-0.7328 c -1.03945,-0.40304 -1.95275,-0.66995 -2.02956,-0.59314 -0.12283,0.12283 -0.83639,4.45783 -0.74599,4.53205 0.2869,0.23555 4.32337,2.47637 4.46701,2.47983 0.10914,0.003 0.19843,-1.27563 0.19843,-2.84058 z"
         style="fill:#009aff;fill-opacity:1;stroke-width:0.26458332"
         inkscape:connector-curvature="0" />
      <path
         id="path3820"
         d="m 229.50815,190.31753 -1.83934,-1.77573 -1.75189,1.63881 c -1.82487,1.70708 -2.31191,1.85816 -2.93919,0.91176 -0.34946,-0.52723 -0.26653,-0.68902 1.22056,-2.38125 l 1.59549,-1.81557 0.005,-2.4474 c 0.003,-1.34607 -0.0948,-2.4474 -0.21623,-2.4474 -0.12146,0 -1.39374,0.47725 -2.8273,1.06054 -1.82962,0.74445 -2.66248,0.96989 -2.79442,0.75642 -0.10337,-0.16726 -0.33869,-1.65654 -0.52293,-3.30949 -0.18423,-1.65296 -0.39082,-3.00538 -0.45908,-3.00538 -0.0683,0 -1.16746,0.59706 -2.44267,1.32681 l -2.31857,1.32682 -0.5847,2.17891 c -0.64546,2.40535 -0.8916,2.84037 -1.60709,2.84037 -0.93343,0 -1.01038,-0.76332 -0.32801,-3.25353 0.3573,-1.30392 0.55184,-2.45444 0.4323,-2.55672 -0.20745,-0.17751 -0.9632,-0.40923 -3.45847,-1.06043 -0.93097,-0.24296 -1.12448,-0.40328 -1.12448,-0.93157 0,-1.07707 0.65457,-1.18183 3.12968,-0.50086 l 2.2626,0.62251 2.19865,-1.23412 c 1.20926,-0.67877 2.19354,-1.30212 2.18729,-1.38522 -0.006,-0.0831 -1.13735,-1.03351 -2.51354,-2.11201 -1.3762,-1.0785 -2.50218,-1.9951 -2.50218,-2.03688 0,-0.0418 1.19062,-0.99292 2.64583,-2.11364 1.45521,-1.12073 2.64583,-2.07043 2.64583,-2.11043 0,-0.04 -1.09078,-0.69695 -2.42396,-1.45987 l -2.42397,-1.38713 -2.47202,0.62899 c -2.34261,0.59607 -2.49596,0.60506 -2.92936,0.17166 -0.75823,-0.75823 -0.11483,-1.3067 2.38709,-2.03491 1.24991,-0.36381 2.35411,-0.7454 2.45376,-0.848 0.0996,-0.10259 -0.0733,-1.12973 -0.38437,-2.28253 -0.62471,-2.31521 -0.54211,-2.95489 0.38157,-2.95489 0.78127,0 0.85997,0.1376 1.5693,2.74374 l 0.58546,2.15105 2.09127,1.24727 c 1.1502,0.686 2.22085,1.25155 2.37922,1.25677 0.16801,0.006 0.43087,-1.12008 0.63108,-2.70248 0.50382,-3.98197 0.28082,-3.78218 2.91808,-2.61422 1.23657,0.54764 2.45667,1.07337 2.71133,1.16828 0.42217,0.15734 0.46302,-0.0678 0.46302,-2.55217 v -2.72473 l -1.45521,-1.60806 c -1.49343,-1.65029 -1.68997,-2.11026 -1.1377,-2.66253 0.64087,-0.64088 1.42944,-0.3068 2.98403,1.26418 l 1.56519,1.58169 1.90406,-1.84627 c 1.9238,-1.8654 2.3893,-2.10535 2.96588,-1.52877 0.57007,0.57007 0.3422,1.03129 -1.40229,2.83826 l -1.71979,1.7814 v 2.93341 2.9334 l 2.9074,-1.16865 c 1.59907,-0.64276 3.0105,-1.16865 3.13651,-1.16865 0.126,0 0.3788,1.27992 0.56176,2.84427 0.18297,1.56435 0.4135,2.99329 0.51228,3.17544 0.12888,0.23762 0.8428,-0.0613 2.5274,-1.05834 l 2.34779,-1.3895 0.55922,-2.11666 c 0.65546,-2.48093 0.81098,-2.77813 1.45377,-2.77813 1.04016,0 1.13565,0.61961 0.45495,2.95201 -0.35431,1.21405 -0.56808,2.27836 -0.47504,2.36513 0.093,0.0868 1.21028,0.43093 2.48274,0.7648 2.40518,0.63107 2.96345,0.97652 2.69762,1.66928 -0.2682,0.6989 -0.80409,0.70925 -3.16003,0.0611 l -2.27836,-0.62684 -2.56453,1.47095 c -1.41049,0.80902 -2.5968,1.49669 -2.63626,1.52814 -0.0394,0.0315 1.12141,0.98287 2.57969,2.11425 1.45828,1.13138 2.64669,2.13097 2.64091,2.22132 -0.006,0.0903 -0.96532,0.87864 -2.1323,1.75177 -1.16699,0.87312 -2.23783,1.72359 -2.37965,1.88993 -0.18273,0.21431 0.3579,0.6576 1.85539,1.52135 1.16229,0.67041 2.31283,1.21892 2.55677,1.21892 0.24394,0 1.37686,-0.25578 2.51762,-0.56841 2.26857,-0.62171 2.99187,-0.4486 2.83097,0.67755 -0.0643,0.44977 -0.49648,0.66905 -2.32787,1.181 -1.23693,0.34578 -2.29855,0.67318 -2.35916,0.72756 -0.0606,0.0544 0.16852,1.20906 0.50918,2.56596 0.65832,2.62222 0.60329,3.35384 -0.25228,3.35384 -0.72307,0 -1.19109,-0.83806 -1.72791,-3.09405 l -0.45291,-1.90344 -2.55482,-1.45013 c -2.96719,-1.68422 -2.71749,-1.84951 -3.22127,2.13235 -0.18762,1.48291 -0.42522,2.83227 -0.52801,2.99858 -0.13036,0.21093 -0.98379,-0.0244 -2.82151,-0.77796 -1.44904,-0.59419 -2.77534,-1.08035 -2.94734,-1.08035 -0.21925,0 -0.31272,0.77331 -0.31272,2.58734 v 2.58733 l 1.72982,1.71214 c 1.34239,1.32868 1.71276,1.8603 1.65365,2.37361 -0.0526,0.45716 -0.26186,0.68781 -0.67736,0.74678 -0.44382,0.063 -1.08262,-0.37948 -2.44052,-1.69042 z m -5.91353,-9.73134 2.07606,-0.8854 0.0748,-2.95106 c 0.0546,-2.15357 -0.0106,-2.95106 -0.24133,-2.95106 -0.23327,0 -3.94995,2.01405 -4.68362,2.53803 -0.0939,0.0671 0.53474,5.13489 0.63699,5.13489 0.0336,0 0.99524,-0.39843 2.13708,-0.8854 z m 10.24296,0.15779 c 0.0765,-0.40018 0.21143,-1.26338 0.29977,-1.91823 0.0883,-0.65484 0.22014,-1.50395 0.29289,-1.88691 0.12057,-0.63466 -0.0505,-0.80108 -1.93239,-1.88023 -1.13557,-0.65117 -2.33627,-1.32628 -2.66823,-1.50025 l -0.60357,-0.31631 0.0744,3.24067 0.0744,3.24067 1.98438,0.86631 c 1.0914,0.47647 2.06421,0.86981 2.16178,0.8741 0.0976,0.004 0.24004,-0.31963 0.31657,-0.71982 z m -11.82587,-8.43711 c 1.43035,-0.82049 2.64045,-1.52506 2.6891,-1.56571 0.0487,-0.0407 -1.06433,-0.75237 -2.47329,-1.58158 -2.15393,-1.26766 -2.65239,-1.4639 -3.13116,-1.23272 -0.77789,0.3756 -3.61437,2.65809 -3.60278,2.89912 0.0103,0.21399 3.45485,2.94047 3.74001,2.96033 0.0976,0.007 1.34777,-0.65895 2.77812,-1.47944 z m 16.00582,0.11701 c 0.9946,-0.75613 1.80836,-1.40851 1.80836,-1.44972 0,-0.0412 -0.89833,-0.78327 -1.99628,-1.649 l -1.99629,-1.57405 -2.30319,1.32497 c -1.26676,0.72873 -2.39939,1.41767 -2.51695,1.53097 -0.16555,0.15955 4.6036,3.14398 5.08612,3.18278 0.0604,0.005 0.92364,-0.60981 1.91823,-1.36595 z m -5.99685,-5.86263 c 1.30969,-0.76507 2.3769,-1.50346 2.37158,-1.64087 -0.0533,-1.37662 -0.47851,-4.61546 -0.60595,-4.61546 -0.09,0 -1.14876,0.38695 -2.35275,0.8599 l -2.18909,0.85989 -9.5e-4,2.97656 c -5.3e-4,1.63711 0.0883,2.97082 0.19748,2.96379 0.10914,-0.007 1.27,-0.63875 2.57969,-1.40381 z m -6.27518,-1.77453 -0.0748,-2.92653 -1.84782,-0.77905 c -1.0163,-0.42849 -1.9688,-0.73915 -2.11666,-0.69036 -0.29508,0.0974 -0.95672,4.49609 -0.69537,4.62296 0.0891,0.0432 1.11444,0.65993 2.2786,1.37042 1.16417,0.7105 2.20987,1.3002 2.32377,1.31045 0.11391,0.0103 0.17344,-1.29829 0.1323,-2.90789 z"
         style="fill:#009aff;fill-opacity:1;stroke-width:0.26458332"
         inkscape:connector-curvature="0" />
      <path
         id="path3818"
         d="m 229.63327,190.20618 -1.85825,-1.86319 -1.94015,1.77075 c -1.56638,1.4296 -2.02395,1.71824 -2.37509,1.49821 -0.88687,-0.55572 -0.65793,-1.35794 0.86911,-3.04537 l 1.47409,-1.62892 v -2.57885 -2.57885 l -2.84427,1.14467 c -2.49565,1.00437 -2.86449,1.09087 -3.00918,0.70571 -0.0907,-0.24143 -0.31639,-1.71888 -0.50152,-3.28323 -0.18514,-1.56435 -0.39392,-2.84427 -0.46398,-2.84427 -0.18327,0 -3.80897,2.02166 -4.3624,2.43244 -0.25955,0.19265 -0.73369,1.33208 -1.07102,2.57381 -0.61065,2.24781 -1.07383,2.88911 -1.86688,2.58478 -0.57225,-0.21959 -0.5475,-1.09853 0.0963,-3.42188 0.29104,-1.05026 0.52917,-2.03901 0.52917,-2.19723 0,-0.15822 -0.92274,-0.50249 -2.05052,-0.76506 -2.27829,-0.53041 -2.71198,-0.77223 -2.71198,-1.51215 0,-0.82209 0.76411,-0.8848 3.19474,-0.26217 l 2.29544,0.58799 2.1497,-1.25635 c 1.18233,-0.69098 2.1497,-1.32349 2.1497,-1.40556 0,-0.0821 -1.13109,-1.02416 -2.51354,-2.09352 -1.38245,-1.06936 -2.51354,-1.98238 -2.51354,-2.02892 0,-0.0466 1.19062,-0.99726 2.64583,-2.11271 1.45521,-1.11544 2.64583,-2.06591 2.64583,-2.11214 0,-0.0462 -1.08937,-0.70747 -2.42083,-1.4694 l -2.42083,-1.38534 -2.40781,0.57597 c -2.90188,0.69414 -2.71895,0.69287 -3.07833,0.0214 -0.45173,-0.84407 0.0247,-1.17796 2.66282,-1.86625 1.6191,-0.42242 2.37332,-0.74174 2.37332,-1.00479 0,-0.21207 -0.24646,-1.26391 -0.54769,-2.33742 -0.58353,-2.0796 -0.45189,-2.71213 0.56447,-2.71213 0.63199,0 0.71969,0.16952 1.40948,2.72433 l 0.58602,2.17046 2.10271,1.25574 c 1.15649,0.69066 2.2335,1.25621 2.39335,1.25677 0.1652,5.8e-4 0.42639,-0.99814 0.60519,-2.31407 0.173,-1.27331 0.38112,-2.69263 0.46248,-3.15404 l 0.14793,-0.83894 2.1573,0.93018 c 3.78966,1.63402 3.34792,1.81352 3.34792,-1.36044 v -2.75649 l -1.49307,-1.6127 c -1.36274,-1.47193 -1.46716,-1.66955 -1.19629,-2.26404 0.49392,-1.08404 1.33998,-0.82852 3.08048,0.93034 l 1.56519,1.58169 1.90406,-1.84627 c 1.9238,-1.8654 2.3893,-2.10535 2.96588,-1.52877 0.57007,0.57007 0.3422,1.03129 -1.40229,2.83826 l -1.71979,1.7814 v 2.93341 2.9334 l 2.92454,-1.17554 c 1.60849,-0.64655 3.01945,-1.11688 3.13545,-1.04518 0.11601,0.0717 0.36142,1.41425 0.54536,2.98345 0.18393,1.5692 0.39025,2.94708 0.45848,3.06196 0.0682,0.11488 0.91779,-0.23064 1.88792,-0.76783 3.01224,-1.66796 3.05594,-1.71472 3.5981,-3.85036 0.61584,-2.4259 0.83881,-2.86672 1.44998,-2.86672 1.0092,0 1.09159,0.57491 0.42802,2.98675 -0.34757,1.2633 -0.5511,2.34254 -0.45229,2.39831 0.0988,0.0558 1.22194,0.3734 2.49585,0.70583 2.4089,0.62861 2.96049,0.96844 2.69499,1.66033 -0.26665,0.69487 -0.7765,0.70218 -3.16398,0.0453 l -2.30458,-0.63405 -2.54944,1.47032 c -1.40219,0.80868 -2.58215,1.50193 -2.62212,1.54057 -0.04,0.0386 1.12089,1.00062 2.57969,2.13774 1.4588,1.13713 2.64547,2.1363 2.63706,2.22038 -0.008,0.0841 -1.09163,0.96872 -2.40713,1.96586 -1.3155,0.99714 -2.29088,1.91199 -2.16751,2.03301 0.12338,0.12102 1.14692,0.7446 2.27455,1.38573 l 2.05024,1.1657 2.39897,-0.63694 c 2.59016,-0.68771 3.26663,-0.56503 3.10447,0.563 -0.0643,0.4473 -0.50758,0.66809 -2.39402,1.19241 -1.66516,0.46283 -2.3151,0.76113 -2.3151,1.06256 0,0.23049 0.23812,1.25175 0.52917,2.26947 0.67455,2.35879 0.67214,2.96167 -0.0127,3.17903 -0.84427,0.26796 -1.1889,-0.2293 -1.84125,-2.65677 l -0.60541,-2.25282 -2.53759,-1.44226 c -2.95093,-1.67719 -2.70289,-1.84446 -3.21015,2.16484 -0.18761,1.48291 -0.42265,2.82811 -0.52229,2.98934 -0.12231,0.19789 -1.11932,-0.0917 -3.06809,-0.89114 l -2.8869,-1.1843 -0.076,2.67635 -0.076,2.67636 1.75274,1.76627 c 1.34408,1.35447 1.73192,1.91351 1.66345,2.39777 -0.17035,1.20478 -1.03261,0.89355 -3.00587,-1.08495 z m -5.85825,-9.66825 c 0.99468,-0.4005 1.86214,-0.86794 1.92768,-1.03875 0.0656,-0.17081 0.0852,-1.58158 0.0436,-3.13506 l -0.0756,-2.8245 -2.38125,1.35368 c -1.30968,0.74453 -2.42686,1.39413 -2.48261,1.44357 -0.0558,0.0494 0.0497,1.2315 0.2344,2.62681 0.2182,1.64856 0.43899,2.49586 0.63054,2.41967 0.16212,-0.0645 1.10858,-0.44493 2.10326,-0.84542 z m 10.08303,0.33834 c 0.12324,-0.57472 0.67618,-4.27377 0.67618,-4.52349 0,-0.1259 -4.96301,-3.08328 -5.17429,-3.08328 -0.0646,0 -0.11738,1.45852 -0.11738,3.24115 l 1e-5,3.24115 2.05052,0.84818 c 1.12778,0.4665 2.13754,0.85345 2.24391,0.85989 0.10637,0.006 0.25084,-0.25617 0.32105,-0.5836 z m -11.76583,-8.58106 c 1.44321,-0.8269 2.57417,-1.5841 2.51325,-1.68268 -0.17521,-0.28349 -4.79136,-2.89928 -5.11645,-2.89928 -0.33612,0 -3.84469,2.65926 -3.974,3.01203 -0.0861,0.23485 3.36107,3.05693 3.74714,3.06766 0.11333,0.003 1.38686,-0.67083 2.83006,-1.49773 z m 15.91537,0.1555 c 1.00007,-0.74138 1.81175,-1.42599 1.80373,-1.52136 -0.0225,-0.26776 -3.73042,-3.04025 -4.05972,-3.03553 -0.56279,0.008 -4.97263,2.7844 -4.74994,2.99044 0.23824,0.2204 4.91699,2.89344 5.0877,2.90667 0.055,0.004 0.91817,-0.59884 1.91823,-1.34022 z m -6.07983,-5.8329 c 1.29609,-0.74802 2.4033,-1.43572 2.46047,-1.52822 0.11191,-0.18107 -0.3938,-4.58254 -0.54668,-4.75812 -0.0506,-0.0582 -1.10613,0.2863 -2.34553,0.76546 l -2.25346,0.8712 v 3.00485 c 0,1.65267 0.0739,3.00486 0.16434,3.00486 0.0904,0 1.22478,-0.61202 2.52086,-1.36003 z m -6.18226,-1.86081 -0.0748,-2.95626 -1.84237,-0.75456 c -1.01331,-0.41501 -1.97285,-0.70449 -2.13231,-0.6433 -0.43886,0.1684 -0.95753,4.48309 -0.56701,4.71673 0.1696,0.10146 1.20133,0.72055 2.29274,1.37577 1.0914,0.65521 2.07757,1.19727 2.19147,1.20458 0.11391,0.007 0.17344,-1.31702 0.1323,-2.94296 z"
         style="fill:#009aff;fill-opacity:1;stroke-width:0.26458332"
         inkscape:connector-curvature="0" />
      <path
         id="path3816"
         d="m 229.5757,190.14861 -1.91581,-1.92075 -1.85804,1.8438 c -1.55907,1.54712 -1.93197,1.79745 -2.31752,1.55578 -0.91936,-0.57629 -0.69861,-1.37076 0.84378,-3.03674 l 1.47487,-1.59303 v -2.60885 -2.60886 l -2.84427,1.14496 c -3.32523,1.33858 -2.9675,1.61749 -3.49992,-2.72876 -0.18146,-1.48133 -0.42002,-2.69332 -0.53013,-2.69332 -0.32337,0 -4.49273,2.41555 -4.67311,2.70739 -0.0906,0.1466 -0.42716,1.2281 -0.74791,2.40334 -0.59146,2.16714 -1.04231,2.78023 -1.82391,2.4803 -0.56819,-0.21803 -0.54604,-0.97545 0.0963,-3.29352 0.29104,-1.05026 0.52917,-2.06329 0.52917,-2.25119 0,-0.20277 -0.77962,-0.54013 -1.91823,-0.83007 -2.41467,-0.61485 -2.84427,-0.84118 -2.84427,-1.49845 0,-0.84738 0.74266,-0.91057 3.19175,-0.27161 l 2.29795,0.59954 2.15844,-1.25414 c 1.18714,-0.68978 2.12485,-1.3447 2.08379,-1.45537 -0.0411,-0.11068 -1.1462,-1.05589 -2.45589,-2.10047 -1.30969,-1.04458 -2.41214,-1.92905 -2.4499,-1.96549 -0.0378,-0.0364 1.13826,-0.99575 2.61338,-2.1318 3.0907,-2.38031 3.12141,-2.07876 -0.40397,-3.96668 l -1.95017,-1.04436 -2.44742,0.63097 c -2.34755,0.60522 -2.46169,0.61146 -2.79703,0.15287 -0.59095,-0.80819 -0.0276,-1.31358 2.05641,-1.84479 1.06651,-0.27185 2.19456,-0.58722 2.50676,-0.70081 l 0.56765,-0.20653 -0.64528,-2.29122 c -0.69668,-2.47377 -0.57463,-3.1412 0.54517,-2.9812 0.44956,0.0642 0.67538,0.50856 1.21377,2.38829 0.36381,1.27016 0.84006,2.47711 1.05834,2.68212 0.21828,0.205 1.30318,0.86417 2.4109,1.46482 l 2.01402,1.09208 0.16839,-1.26066 c 0.0926,-0.69336 0.29948,-2.17068 0.45968,-3.28293 l 0.29129,-2.02228 2.65779,1.16238 c 1.46179,0.63931 2.75964,1.16238 2.88411,1.16238 0.12447,0 0.22632,-1.17862 0.22632,-2.61915 v -2.61916 l -1.5875,-1.75174 c -0.87313,-0.96346 -1.5875,-1.81673 -1.5875,-1.89616 0,-0.0794 0.12325,-0.37471 0.27389,-0.65618 0.48734,-0.91061 1.34773,-0.59495 3.09294,1.13474 l 1.66128,1.64651 1.9346,-1.92169 c 1.34013,-1.33118 2.06541,-1.8715 2.36028,-1.75835 0.98519,0.37805 0.76175,1.00439 -0.98698,2.76661 l -1.7391,1.75253 0.075,3.06859 0.075,3.06858 2.89558,-1.16463 c 1.96871,-0.79184 2.9539,-1.07029 3.07775,-0.86988 0.10019,0.16211 0.33624,1.59029 0.52454,3.17373 0.18831,1.58344 0.42997,2.87899 0.53703,2.87899 0.26649,0 3.97259,-2.11383 4.51691,-2.57628 0.24162,-0.20528 0.64491,-1.22765 0.8962,-2.27192 0.5704,-2.37045 0.80179,-2.82472 1.43878,-2.82472 0.92722,0 1.01746,0.72479 0.37409,3.00453 -0.33448,1.18517 -0.52485,2.23289 -0.42305,2.32828 0.1018,0.0954 1.25665,0.45974 2.56634,0.80965 2.06549,0.55184 2.39309,0.71784 2.47054,1.25184 0.14271,0.9839 -0.40526,1.05585 -2.91856,0.38325 l -2.36137,-0.63195 -2.56406,1.47876 c -1.41023,0.81332 -2.59952,1.51313 -2.64286,1.55514 -0.0434,0.042 1.12291,1.01327 2.59168,2.15834 l 2.67049,2.08195 -0.75394,0.66146 c -0.41466,0.3638 -1.49642,1.23061 -2.40391,1.92624 -0.90748,0.69562 -1.5869,1.36682 -1.50982,1.49155 0.0771,0.12473 1.09451,0.76747 2.26093,1.42833 l 2.12077,1.20155 2.40063,-0.65782 c 1.87467,-0.5137 2.48304,-0.58942 2.77682,-0.34561 0.96916,0.80434 0.31629,1.38638 -2.4313,2.16754 -1.14801,0.32638 -2.07008,0.68583 -2.04905,0.79876 0.021,0.11293 0.30466,1.28357 0.63028,2.60141 0.55033,2.22722 0.56127,2.42686 0.15524,2.83289 -0.73692,0.73692 -1.28211,0.0702 -2.00821,-2.45605 l -0.66764,-2.32279 -2.48266,-1.43141 c -1.36547,-0.78728 -2.54631,-1.36777 -2.6241,-1.28998 -0.0778,0.0778 -0.35059,1.58091 -0.60623,3.34026 -0.25564,1.75935 -0.51351,3.24754 -0.57305,3.30707 -0.0864,0.0865 -2.29805,-0.76559 -5.68635,-2.1907 -0.25228,-0.10611 -0.33073,0.51268 -0.33073,2.60883 v 2.74793 l 1.72982,1.71214 c 1.34239,1.32868 1.71276,1.8603 1.65365,2.37361 -0.14435,1.25336 -1.0028,0.94025 -3.05033,-1.11256 z m -5.56192,-9.68094 1.78268,-0.71587 0.003,-3.13091 c 0.002,-1.72199 -0.0922,-3.09121 -0.20884,-3.04271 -0.11665,0.0485 -1.25994,0.68189 -2.54064,1.40752 l -2.32853,1.31932 0.17346,1.5911 c 0.35389,3.24595 0.45145,3.61576 0.90905,3.44589 0.23479,-0.0872 1.22909,-0.48061 2.20957,-0.87434 z m 9.82505,0.5409 c 0.34566,-1.19427 0.71662,-4.64783 0.51965,-4.8379 -0.25373,-0.24483 -4.83589,-2.90117 -5.0045,-2.90117 -0.0613,0 -0.11142,1.46539 -0.11142,3.25641 v 3.25641 l 1.91823,0.81507 c 2.29878,0.97679 2.50516,1.00847 2.67804,0.41118 z m -11.69753,-8.71579 c 1.43184,-0.82824 2.59933,-1.57238 2.59442,-1.65365 -0.005,-0.0813 -1.19496,-0.82065 -2.64457,-1.64307 l -2.63565,-1.49533 -1.9987,1.54456 c -1.09929,0.84951 -2.00724,1.6303 -2.01766,1.73509 -0.0236,0.23705 3.52741,3.01327 3.85789,3.01617 0.13251,0.001 1.41243,-0.67553 2.84427,-1.50377 z m 15.92992,0.1513 c 0.96507,-0.74503 1.7507,-1.42964 1.74584,-1.52136 -0.0137,-0.25888 -3.73046,-3.03319 -4.06221,-3.03217 -0.34272,0.001 -4.61937,2.45299 -4.80644,2.75567 -0.11107,0.17973 4.78593,3.14351 5.20458,3.14994 0.09,0.001 0.95315,-0.60706 1.91823,-1.35208 z m -3.58901,-7.26307 c 0.0966,-0.0645 -0.51982,-4.69846 -0.64507,-4.84954 -0.0482,-0.0582 -1.10172,0.2863 -2.34112,0.76546 l -2.25346,0.8712 v 3.11786 3.11785 l 2.57969,-1.48459 c 1.41882,-0.81653 2.61581,-1.50874 2.65996,-1.53824 z m -8.73671,-0.41699 -0.0748,-2.94923 -2.06601,-0.86848 c -1.39371,-0.58587 -2.09725,-0.76696 -2.16198,-0.5565 -0.21711,0.70585 -0.66573,4.50229 -0.54616,4.62186 0.24157,0.24156 4.50846,2.67234 4.71667,2.687 0.11391,0.008 0.17344,-1.31257 0.1323,-2.93465 z"
         style="fill:#009aff;fill-opacity:1;stroke-width:0.26458332"
         inkscape:connector-curvature="0" />
      <path
         id="path3814"
         d="m 229.5837,190.1566 -1.90782,-1.91276 -1.85215,1.78809 c -1.62178,1.5657 -1.91925,1.75219 -2.39166,1.49936 -0.86929,-0.46523 -0.63476,-1.19541 0.92518,-2.88033 l 1.46469,-1.58204 -0.0756,-2.64175 -0.0756,-2.64176 -2.82071,1.13464 -2.8207,1.13464 -0.13937,-0.82853 c -0.0767,-0.45569 -0.28276,-1.92986 -0.45801,-3.27593 -0.17526,-1.34606 -0.40522,-2.44739 -0.51104,-2.44739 -0.31645,0 -4.44103,2.393 -4.70644,2.73058 -0.13497,0.17167 -0.45116,1.16748 -0.70264,2.21292 -0.55889,2.3233 -0.90499,2.85951 -1.68572,2.61172 -0.72138,-0.22896 -0.7296,-0.79912 -0.046,-3.1896 0.77872,-2.72304 0.80895,-2.65378 -1.38906,-3.1828 -2.40564,-0.57898 -2.84427,-0.80491 -2.84427,-1.46502 0,-0.82803 0.62126,-0.87798 3.14975,-0.25321 l 2.35188,0.58113 2.14398,-1.23664 c 1.17918,-0.68016 2.14397,-1.33041 2.14397,-1.44501 0,-0.16691 -2.10217,-1.89143 -4.69992,-3.85561 -0.28205,-0.21326 0.23296,-0.73094 2.32857,-2.34062 1.7901,-1.37502 2.60234,-2.15518 2.42668,-2.33084 -0.14522,-0.14522 -1.25734,-0.83197 -2.47139,-1.5261 l -2.20736,-1.26206 -2.3698,0.6342 c -1.30339,0.34881 -2.53329,0.57146 -2.7331,0.49479 -0.21532,-0.0826 -0.32913,-0.42604 -0.27942,-0.84315 0.0764,-0.64109 0.27958,-0.75701 2.2823,-1.30211 1.20914,-0.3291 2.36075,-0.66065 2.55912,-0.73677 0.29283,-0.11237 0.24109,-0.57313 -0.27499,-2.44889 -0.68305,-2.48267 -0.57172,-3.11659 0.51984,-2.9602 0.45309,0.0649 0.67083,0.51466 1.2275,2.5354 l 0.67672,2.45649 2.34484,1.31446 c 1.28966,0.72295 2.36929,1.2844 2.39917,1.24767 0.0299,-0.0367 0.24985,-1.42747 0.48882,-3.09055 0.23897,-1.66308 0.48893,-3.07822 0.55547,-3.14476 0.0665,-0.0665 1.26431,0.37142 2.66171,0.97325 1.39739,0.60184 2.65123,1.09424 2.78631,1.09424 0.13508,0 0.2456,-1.19775 0.2456,-2.66167 v -2.66167 l -1.26537,-1.37322 c -1.94136,-2.10683 -1.98843,-2.18683 -1.6541,-2.81152 0.48893,-0.91359 1.28878,-0.63153 3.0761,1.08474 l 1.69833,1.63082 1.95659,-1.89721 c 1.28139,-1.24249 2.09559,-1.84387 2.35936,-1.74265 0.92361,0.35442 0.69398,0.97362 -1.01912,2.74809 l -1.72963,1.79157 0.0749,3.05393 0.0748,3.05392 2.89558,-1.16463 c 1.79836,-0.72332 2.95906,-1.06193 3.06309,-0.89361 0.0921,0.14906 0.32284,1.57725 0.5127,3.17374 0.18985,1.59649 0.45732,2.90271 0.59437,2.90271 0.13705,0 1.28354,-0.60332 2.54774,-1.3407 l 2.29856,-1.3407 0.65857,-2.42962 c 0.56385,-2.08022 0.74433,-2.44179 1.25505,-2.51431 0.92715,-0.13166 1.01761,0.62746 0.3673,3.08231 -0.32446,1.22482 -0.55499,2.25238 -0.51228,2.28346 0.0427,0.0311 1.20875,0.3534 2.5912,0.71626 2.32989,0.61154 2.51965,0.71135 2.59726,1.3661 0.0715,0.60298 -0.0152,0.70636 -0.59236,0.70636 -0.37185,0 -1.5698,-0.24518 -2.66212,-0.54486 l -1.98604,-0.54486 -2.64712,1.49882 c -1.45592,0.82435 -2.64712,1.53524 -2.64712,1.57976 0,0.0445 1.10132,0.94646 2.44739,2.00432 1.34607,1.05785 2.54451,2.00491 2.66322,2.10456 0.1187,0.0997 -0.8338,0.9902 -2.11667,1.97899 -1.28287,0.98879 -2.43061,1.88277 -2.55053,1.98661 -0.11993,0.10384 0.86271,0.79021 2.18364,1.52528 l 2.40169,1.33648 2.31132,-0.6172 c 2.32096,-0.61978 3.24327,-0.5583 3.24327,0.2162 0,0.61658 -0.59137,0.93635 -2.82096,1.52534 -1.74873,0.46196 -2.18995,0.67414 -2.09404,1.00699 1.20437,4.17961 1.30601,4.80554 0.85377,5.25778 -0.74203,0.74202 -1.27934,0.098 -1.9378,-2.3226 -0.33025,-1.21404 -0.69315,-2.29655 -0.80644,-2.40558 -0.60415,-0.58141 -4.94595,-2.87823 -5.10268,-2.69932 -0.10127,0.11559 -0.3799,1.6285 -0.61919,3.36203 -0.23928,1.73352 -0.4759,3.1927 -0.52583,3.24262 -0.0499,0.0499 -1.37118,-0.44568 -2.93614,-1.10134 -1.56495,-0.65565 -2.89382,-1.1921 -2.95303,-1.1921 -0.0592,0 -0.10766,1.22383 -0.10766,2.71962 v 2.71963 l 1.72982,1.71214 c 1.34239,1.32868 1.71276,1.8603 1.65365,2.37361 -0.14419,1.25203 -1.00272,0.94032 -3.04233,-1.10457 z m -5.56666,-9.6627 1.78594,-0.69341 v -3.1332 c 0,-1.72326 -0.0683,-3.1332 -0.15174,-3.1332 -0.0834,0 -1.22701,0.62508 -2.54124,1.38906 l -2.38951,1.38906 0.16736,1.71979 c 0.28914,2.97122 0.43195,3.4897 0.91265,3.31331 0.23683,-0.0869 1.23427,-0.47003 2.21654,-0.85141 z m 10.19448,-1.49838 c 0.19725,-1.28719 0.30238,-2.48694 0.23363,-2.6661 -0.1087,-0.28326 -4.70774,-3.05992 -5.06822,-3.05992 -0.0739,0 -0.13437,1.46594 -0.13437,3.25763 v 3.25762 l 1.91823,0.82458 c 1.05502,0.45351 2.09235,0.80251 2.30516,0.77556 0.27497,-0.0348 0.49072,-0.72627 0.74557,-2.38937 z m -12.08628,-6.67997 c 1.44067,-0.81572 2.61818,-1.55986 2.61668,-1.65365 -0.002,-0.0938 -1.19922,-0.85156 -2.6616,-1.68394 l -2.65889,-1.51343 -1.77016,1.3613 c -0.97359,0.74872 -1.92853,1.50308 -2.12208,1.67635 -0.2838,0.25407 0.0194,0.60356 1.56665,1.80577 1.0552,0.81989 2.02913,1.49072 2.16427,1.49072 0.13515,0 1.42445,-0.6674 2.86513,-1.48312 z m 15.95665,0.13979 c 0.97597,-0.73883 1.73787,-1.44135 1.6931,-1.56115 -0.0448,-0.11981 -0.94454,-0.89129 -1.99951,-1.71441 l -1.91812,-1.49658 -2.66478,1.50882 -2.66479,1.50881 2.06936,1.18222 c 1.13815,0.65022 2.30749,1.34099 2.59853,1.53504 0.8073,0.53827 0.97912,0.48095 2.88621,-0.96275 z m -3.60332,-7.25862 c 0.22393,-0.18143 -0.58362,-4.892 -0.83886,-4.89322 -0.16286,-8e-4 -1.21884,0.36979 -2.34663,0.82349 l -2.05052,0.82491 v 3.13316 3.13317 l 2.57969,-1.47971 c 1.41882,-0.81383 2.61417,-1.50764 2.65632,-1.5418 z m -8.73307,-0.45108 -0.0748,-2.96762 -2.06129,-0.86241 c -1.45463,-0.6086 -2.09269,-0.76698 -2.168,-0.53812 -0.11695,0.35543 -0.6655,3.97273 -0.6655,4.38853 0,0.24749 4.40821,2.92739 4.83731,2.94077 0.11391,0.004 0.17344,-1.32896 0.1323,-2.96115 z"
         style="fill:#009aff;fill-opacity:1;stroke-width:0.26458332"
         inkscape:connector-curvature="0" />
    </g>
  </g>
</svg>
